<!--?xml version="1.0" encoding="UTF-8"?-->

<svg xmlns="http://www.w3.org/2000/svg" version="1.1" width="100%" height="100%" viewBox="0 0 200 200" preserveAspectRatio="xMidYMid meet" style="shape-rendering:geometricPrecision; text-rendering:geometricPrecision; image-rendering:optimizeQuality; fill-rule:evenodd; clip-rule:evenodd">

<style>
/***************************************************
 * Generated by SVG Artista on 9/2/2024, 11:53:13 PM
 * MIT license (https://opensource.org/licenses/MIT)
 * W. https://svgartista.net
 **************************************************/

@-webkit-keyframes animate-svg-fill-1{0%{fill:transparent}100%{fill:rgb(253,253,254)}}@keyframes animate-svg-fill-1{0%{fill:transparent}100%{fill:rgb(253,253,254)}}.svg-elem-1{-webkit-animation:animate-svg-fill-1 0.2s ease-in-out 0.4s both;animation:animate-svg-fill-1 0.2s ease-in-out 0.4s both}@-webkit-keyframes animate-svg-fill-2{0%{fill:transparent}100%{fill:rgb(100,218,251)}}@keyframes animate-svg-fill-2{0%{fill:transparent}100%{fill:rgb(100,218,251)}}.svg-elem-2{-webkit-animation:animate-svg-fill-2 0.2s ease-in-out 0.5s both;animation:animate-svg-fill-2 0.2s ease-in-out 0.5s both}@-webkit-keyframes animate-svg-fill-3{0%{fill:transparent}100%{fill:rgb(24,129,166)}}@keyframes animate-svg-fill-3{0%{fill:transparent}100%{fill:rgb(24,129,166)}}.svg-elem-3{-webkit-animation:animate-svg-fill-3 0.2s ease-in-out 0.6000000000000001s both;animation:animate-svg-fill-3 0.2s ease-in-out 0.6000000000000001s both}@-webkit-keyframes animate-svg-fill-4{0%{fill:transparent}100%{fill:rgb(108,108,108)}}@keyframes animate-svg-fill-4{0%{fill:transparent}100%{fill:rgb(108,108,108)}}.svg-elem-4{-webkit-animation:animate-svg-fill-4 0.2s ease-in-out 0.7000000000000001s both;animation:animate-svg-fill-4 0.2s ease-in-out 0.7000000000000001s both}@-webkit-keyframes animate-svg-fill-5{0%{fill:transparent}100%{fill:rgb(110,110,110)}}@keyframes animate-svg-fill-5{0%{fill:transparent}100%{fill:rgb(110,110,110)}}.svg-elem-5{-webkit-animation:animate-svg-fill-5 0.2s ease-in-out 0.8s both;animation:animate-svg-fill-5 0.2s ease-in-out 0.8s both}@-webkit-keyframes animate-svg-fill-6{0%{fill:transparent}100%{fill:rgb(22,129,166)}}@keyframes animate-svg-fill-6{0%{fill:transparent}100%{fill:rgb(22,129,166)}}.svg-elem-6{-webkit-animation:animate-svg-fill-6 0.2s ease-in-out 0.9s both;animation:animate-svg-fill-6 0.2s ease-in-out 0.9s both}@-webkit-keyframes animate-svg-fill-7{0%{fill:transparent}100%{fill:rgb(11,126,164)}}@keyframes animate-svg-fill-7{0%{fill:transparent}100%{fill:rgb(11,126,164)}}.svg-elem-7{-webkit-animation:animate-svg-fill-7 0.2s ease-in-out 1s both;animation:animate-svg-fill-7 0.2s ease-in-out 1s both}@-webkit-keyframes animate-svg-fill-8{0%{fill:transparent}100%{fill:rgb(21,128,165)}}@keyframes animate-svg-fill-8{0%{fill:transparent}100%{fill:rgb(21,128,165)}}.svg-elem-8{-webkit-animation:animate-svg-fill-8 0.2s ease-in-out 1.1s both;animation:animate-svg-fill-8 0.2s ease-in-out 1.1s both}@-webkit-keyframes animate-svg-fill-9{0%{fill:transparent}100%{fill:rgb(13,126,164)}}@keyframes animate-svg-fill-9{0%{fill:transparent}100%{fill:rgb(13,126,164)}}.svg-elem-9{-webkit-animation:animate-svg-fill-9 0.2s ease-in-out 1.2000000000000002s both;animation:animate-svg-fill-9 0.2s ease-in-out 1.2000000000000002s both}@-webkit-keyframes animate-svg-fill-10{0%{fill:transparent}100%{fill:rgb(101,218,251)}}@keyframes animate-svg-fill-10{0%{fill:transparent}100%{fill:rgb(101,218,251)}}.svg-elem-10{-webkit-animation:animate-svg-fill-10 0.2s ease-in-out 1.3s both;animation:animate-svg-fill-10 0.2s ease-in-out 1.3s both}@-webkit-keyframes animate-svg-fill-11{0%{fill:transparent}100%{fill:rgb(111,111,111)}}@keyframes animate-svg-fill-11{0%{fill:transparent}100%{fill:rgb(111,111,111)}}.svg-elem-11{-webkit-animation:animate-svg-fill-11 0.2s ease-in-out 1.4s both;animation:animate-svg-fill-11 0.2s ease-in-out 1.4s both}@-webkit-keyframes animate-svg-fill-12{0%{fill:transparent}100%{fill:rgb(100,218,251)}}@keyframes animate-svg-fill-12{0%{fill:transparent}100%{fill:rgb(100,218,251)}}.svg-elem-12{-webkit-animation:animate-svg-fill-12 0.2s ease-in-out 1.5s both;animation:animate-svg-fill-12 0.2s ease-in-out 1.5s both}@-webkit-keyframes animate-svg-fill-13{0%{fill:transparent}100%{fill:rgb(16,127,164)}}@keyframes animate-svg-fill-13{0%{fill:transparent}100%{fill:rgb(16,127,164)}}.svg-elem-13{-webkit-animation:animate-svg-fill-13 0.2s ease-in-out 1.6s both;animation:animate-svg-fill-13 0.2s ease-in-out 1.6s both}@-webkit-keyframes animate-svg-fill-14{0%{fill:transparent}100%{fill:rgb(12,126,164)}}@keyframes animate-svg-fill-14{0%{fill:transparent}100%{fill:rgb(12,126,164)}}.svg-elem-14{-webkit-animation:animate-svg-fill-14 0.2s ease-in-out 1.7000000000000002s both;animation:animate-svg-fill-14 0.2s ease-in-out 1.7000000000000002s both}@-webkit-keyframes animate-svg-fill-15{0%{fill:transparent}100%{fill:rgb(252,253,254)}}@keyframes animate-svg-fill-15{0%{fill:transparent}100%{fill:rgb(252,253,254)}}.svg-elem-15{-webkit-animation:animate-svg-fill-15 0.2s ease-in-out 1.8000000000000003s both;animation:animate-svg-fill-15 0.2s ease-in-out 1.8000000000000003s both}@-webkit-keyframes animate-svg-fill-16{0%{fill:transparent}100%{fill:rgb(108,108,108)}}@keyframes animate-svg-fill-16{0%{fill:transparent}100%{fill:rgb(108,108,108)}}.svg-elem-16{-webkit-animation:animate-svg-fill-16 0.2s ease-in-out 1.9s both;animation:animate-svg-fill-16 0.2s ease-in-out 1.9s both}@-webkit-keyframes animate-svg-fill-17{0%{fill:transparent}100%{fill:rgb(251,252,253)}}@keyframes animate-svg-fill-17{0%{fill:transparent}100%{fill:rgb(251,252,253)}}.svg-elem-17{-webkit-animation:animate-svg-fill-17 0.2s ease-in-out 2s both;animation:animate-svg-fill-17 0.2s ease-in-out 2s both}@-webkit-keyframes animate-svg-fill-18{0%{fill:transparent}100%{fill:rgb(98,218,251)}}@keyframes animate-svg-fill-18{0%{fill:transparent}100%{fill:rgb(98,218,251)}}.svg-elem-18{-webkit-animation:animate-svg-fill-18 0.2s ease-in-out 2.1s both;animation:animate-svg-fill-18 0.2s ease-in-out 2.1s both}@-webkit-keyframes animate-svg-fill-19{0%{fill:transparent}100%{fill:rgb(98,218,251)}}@keyframes animate-svg-fill-19{0%{fill:transparent}100%{fill:rgb(98,218,251)}}.svg-elem-19{-webkit-animation:animate-svg-fill-19 0.2s ease-in-out 2.2s both;animation:animate-svg-fill-19 0.2s ease-in-out 2.2s both}@-webkit-keyframes animate-svg-fill-20{0%{fill:transparent}100%{fill:rgb(108,108,108)}}@keyframes animate-svg-fill-20{0%{fill:transparent}100%{fill:rgb(108,108,108)}}.svg-elem-20{-webkit-animation:animate-svg-fill-20 0.2s ease-in-out 2.3000000000000003s both;animation:animate-svg-fill-20 0.2s ease-in-out 2.3000000000000003s both}@-webkit-keyframes animate-svg-fill-21{0%{fill:transparent}100%{fill:rgb(22,129,166)}}@keyframes animate-svg-fill-21{0%{fill:transparent}100%{fill:rgb(22,129,166)}}.svg-elem-21{-webkit-animation:animate-svg-fill-21 0.2s ease-in-out 2.4s both;animation:animate-svg-fill-21 0.2s ease-in-out 2.4s both}@-webkit-keyframes animate-svg-fill-22{0%{fill:transparent}100%{fill:rgb(28,130,167)}}@keyframes animate-svg-fill-22{0%{fill:transparent}100%{fill:rgb(28,130,167)}}.svg-elem-22{-webkit-animation:animate-svg-fill-22 0.2s ease-in-out 2.5s both;animation:animate-svg-fill-22 0.2s ease-in-out 2.5s both}@-webkit-keyframes animate-svg-fill-23{0%{fill:transparent}100%{fill:rgb(18,128,165)}}@keyframes animate-svg-fill-23{0%{fill:transparent}100%{fill:rgb(18,128,165)}}.svg-elem-23{-webkit-animation:animate-svg-fill-23 0.2s ease-in-out 2.6s both;animation:animate-svg-fill-23 0.2s ease-in-out 2.6s both}@-webkit-keyframes animate-svg-fill-24{0%{fill:transparent}100%{fill:rgb(110,110,110)}}@keyframes animate-svg-fill-24{0%{fill:transparent}100%{fill:rgb(110,110,110)}}.svg-elem-24{-webkit-animation:animate-svg-fill-24 0.2s ease-in-out 2.7s both;animation:animate-svg-fill-24 0.2s ease-in-out 2.7s both}@-webkit-keyframes animate-svg-fill-25{0%{fill:transparent}100%{fill:rgb(23,129,166)}}@keyframes animate-svg-fill-25{0%{fill:transparent}100%{fill:rgb(23,129,166)}}.svg-elem-25{-webkit-animation:animate-svg-fill-25 0.2s ease-in-out 2.8000000000000003s both;animation:animate-svg-fill-25 0.2s ease-in-out 2.8000000000000003s both}@-webkit-keyframes animate-svg-fill-26{0%{fill:transparent}100%{fill:rgb(29,132,168)}}@keyframes animate-svg-fill-26{0%{fill:transparent}100%{fill:rgb(29,132,168)}}.svg-elem-26{-webkit-animation:animate-svg-fill-26 0.2s ease-in-out 2.9s both;animation:animate-svg-fill-26 0.2s ease-in-out 2.9s both}@-webkit-keyframes animate-svg-fill-27{0%{fill:transparent}100%{fill:rgb(26,130,167)}}@keyframes animate-svg-fill-27{0%{fill:transparent}100%{fill:rgb(26,130,167)}}.svg-elem-27{-webkit-animation:animate-svg-fill-27 0.2s ease-in-out 3s both;animation:animate-svg-fill-27 0.2s ease-in-out 3s both}@-webkit-keyframes animate-svg-fill-28{0%{fill:transparent}100%{fill:rgb(176,213,225)}}@keyframes animate-svg-fill-28{0%{fill:transparent}100%{fill:rgb(176,213,225)}}.svg-elem-28{-webkit-animation:animate-svg-fill-28 0.2s ease-in-out 3.1s both;animation:animate-svg-fill-28 0.2s ease-in-out 3.1s both}@-webkit-keyframes animate-svg-fill-29{0%{fill:transparent}100%{fill:rgb(22,129,166)}}@keyframes animate-svg-fill-29{0%{fill:transparent}100%{fill:rgb(22,129,166)}}.svg-elem-29{-webkit-animation:animate-svg-fill-29 0.2s ease-in-out 3.2s both;animation:animate-svg-fill-29 0.2s ease-in-out 3.2s both}@-webkit-keyframes animate-svg-fill-30{0%{fill:transparent}100%{fill:rgb(27,132,168)}}@keyframes animate-svg-fill-30{0%{fill:transparent}100%{fill:rgb(27,132,168)}}.svg-elem-30{-webkit-animation:animate-svg-fill-30 0.2s ease-in-out 3.3000000000000003s both;animation:animate-svg-fill-30 0.2s ease-in-out 3.3000000000000003s both}@-webkit-keyframes animate-svg-fill-31{0%{fill:transparent}100%{fill:rgb(25,130,166)}}@keyframes animate-svg-fill-31{0%{fill:transparent}100%{fill:rgb(25,130,166)}}.svg-elem-31{-webkit-animation:animate-svg-fill-31 0.2s ease-in-out 3.4s both;animation:animate-svg-fill-31 0.2s ease-in-out 3.4s both}@-webkit-keyframes animate-svg-fill-32{0%{fill:transparent}100%{fill:rgb(108,108,108)}}@keyframes animate-svg-fill-32{0%{fill:transparent}100%{fill:rgb(108,108,108)}}.svg-elem-32{-webkit-animation:animate-svg-fill-32 0.2s ease-in-out 3.5s both;animation:animate-svg-fill-32 0.2s ease-in-out 3.5s both}@-webkit-keyframes animate-svg-fill-33{0%{fill:transparent}100%{fill:rgb(22,129,166)}}@keyframes animate-svg-fill-33{0%{fill:transparent}100%{fill:rgb(22,129,166)}}.svg-elem-33{-webkit-animation:animate-svg-fill-33 0.2s ease-in-out 3.6s both;animation:animate-svg-fill-33 0.2s ease-in-out 3.6s both}@-webkit-keyframes animate-svg-fill-34{0%{fill:transparent}100%{fill:rgb(50,140,174)}}@keyframes animate-svg-fill-34{0%{fill:transparent}100%{fill:rgb(50,140,174)}}.svg-elem-34{-webkit-animation:animate-svg-fill-34 0.2s ease-in-out 3.7s both;animation:animate-svg-fill-34 0.2s ease-in-out 3.7s both}@-webkit-keyframes animate-svg-fill-35{0%{fill:transparent}100%{fill:rgb(109,109,109)}}@keyframes animate-svg-fill-35{0%{fill:transparent}100%{fill:rgb(109,109,109)}}.svg-elem-35{-webkit-animation:animate-svg-fill-35 0.2s ease-in-out 3.8000000000000003s both;animation:animate-svg-fill-35 0.2s ease-in-out 3.8000000000000003s both}@-webkit-keyframes animate-svg-fill-36{0%{fill:transparent}100%{fill:rgb(250,252,253)}}@keyframes animate-svg-fill-36{0%{fill:transparent}100%{fill:rgb(250,252,253)}}.svg-elem-36{-webkit-animation:animate-svg-fill-36 0.2s ease-in-out 3.9s both;animation:animate-svg-fill-36 0.2s ease-in-out 3.9s both}@-webkit-keyframes animate-svg-fill-37{0%{fill:transparent}100%{fill:rgb(21,129,166)}}@keyframes animate-svg-fill-37{0%{fill:transparent}100%{fill:rgb(21,129,166)}}.svg-elem-37{-webkit-animation:animate-svg-fill-37 0.2s ease-in-out 4s both;animation:animate-svg-fill-37 0.2s ease-in-out 4s both}@-webkit-keyframes animate-svg-fill-38{0%{fill:transparent}100%{fill:rgb(34,134,169)}}@keyframes animate-svg-fill-38{0%{fill:transparent}100%{fill:rgb(34,134,169)}}.svg-elem-38{-webkit-animation:animate-svg-fill-38 0.2s ease-in-out 4.1000000000000005s both;animation:animate-svg-fill-38 0.2s ease-in-out 4.1000000000000005s both}@-webkit-keyframes animate-svg-fill-39{0%{fill:transparent}100%{fill:rgb(108,108,108)}}@keyframes animate-svg-fill-39{0%{fill:transparent}100%{fill:rgb(108,108,108)}}.svg-elem-39{-webkit-animation:animate-svg-fill-39 0.2s ease-in-out 4.2s both;animation:animate-svg-fill-39 0.2s ease-in-out 4.2s both}@-webkit-keyframes animate-svg-fill-40{0%{fill:transparent}100%{fill:rgb(112,112,112)}}@keyframes animate-svg-fill-40{0%{fill:transparent}100%{fill:rgb(112,112,112)}}.svg-elem-40{-webkit-animation:animate-svg-fill-40 0.2s ease-in-out 4.300000000000001s both;animation:animate-svg-fill-40 0.2s ease-in-out 4.300000000000001s both}@-webkit-keyframes animate-svg-fill-41{0%{fill:transparent}100%{fill:rgb(51,141,174)}}@keyframes animate-svg-fill-41{0%{fill:transparent}100%{fill:rgb(51,141,174)}}.svg-elem-41{-webkit-animation:animate-svg-fill-41 0.2s ease-in-out 4.4s both;animation:animate-svg-fill-41 0.2s ease-in-out 4.4s both}@-webkit-keyframes animate-svg-fill-42{0%{fill:transparent}100%{fill:rgb(145,197,214)}}@keyframes animate-svg-fill-42{0%{fill:transparent}100%{fill:rgb(145,197,214)}}.svg-elem-42{-webkit-animation:animate-svg-fill-42 0.2s ease-in-out 4.500000000000001s both;animation:animate-svg-fill-42 0.2s ease-in-out 4.500000000000001s both}@-webkit-keyframes animate-svg-fill-43{0%{fill:transparent}100%{fill:rgb(18,128,165)}}@keyframes animate-svg-fill-43{0%{fill:transparent}100%{fill:rgb(18,128,165)}}.svg-elem-43{-webkit-animation:animate-svg-fill-43 0.2s ease-in-out 4.6000000000000005s both;animation:animate-svg-fill-43 0.2s ease-in-out 4.6000000000000005s both}@-webkit-keyframes animate-svg-fill-44{0%{fill:transparent}100%{fill:rgb(109,109,109)}}@keyframes animate-svg-fill-44{0%{fill:transparent}100%{fill:rgb(109,109,109)}}.svg-elem-44{-webkit-animation:animate-svg-fill-44 0.2s ease-in-out 4.7s both;animation:animate-svg-fill-44 0.2s ease-in-out 4.7s both}@-webkit-keyframes animate-svg-fill-45{0%{fill:transparent}100%{fill:rgb(41,137,172)}}@keyframes animate-svg-fill-45{0%{fill:transparent}100%{fill:rgb(41,137,172)}}.svg-elem-45{-webkit-animation:animate-svg-fill-45 0.2s ease-in-out 4.800000000000001s both;animation:animate-svg-fill-45 0.2s ease-in-out 4.800000000000001s both}@-webkit-keyframes animate-svg-fill-46{0%{fill:transparent}100%{fill:rgb(27,130,167)}}@keyframes animate-svg-fill-46{0%{fill:transparent}100%{fill:rgb(27,130,167)}}.svg-elem-46{-webkit-animation:animate-svg-fill-46 0.2s ease-in-out 4.9s both;animation:animate-svg-fill-46 0.2s ease-in-out 4.9s both}

</style>
<g><path style="opacity: 0.993;" fill="#fdfdfe" d="M 507.5,51.5 C 507.695,55.9152 507.195,60.2486 506,64.5C 504.167,68.6667 502.333,72.8333 500.5,77C 502.39,78.9035 504.724,80.0702 507.5,80.5C 510.094,76.2235 513.76,73.5569 518.5,72.5C 526.314,68.1869 534.314,67.6869 542.5,71C 546.26,74.3519 548.593,78.5185 549.5,83.5C 555.187,84.2082 560.854,84.8749 566.5,85.5C 567.342,81.2665 568.342,76.7665 569.5,72C 565.897,51.6029 574.23,39.2696 594.5,35C 605.208,34.5328 611.208,39.6995 612.5,50.5C 614.741,57.2363 613.408,63.0696 608.5,68C 609.813,75.0862 611.813,81.9195 614.5,88.5C 616.81,88.7583 618.81,88.7583 620.5,88.5C 622.671,86.4998 625.004,84.6665 627.5,83C 643.799,79.342 660.132,75.842 676.5,72.5C 687.107,73.4436 693.107,79.1103 694.5,89.5C 695.49,93.7722 696.156,98.1055 696.5,102.5C 699.127,101.908 701.794,101.575 704.5,101.5C 713.394,103.727 718.394,109.394 719.5,118.5C 721.885,129.885 723.885,141.385 725.5,153C 725.088,162.069 720.754,168.403 712.5,172C 713.903,175.473 715.57,178.806 717.5,182C 720.679,183.461 724.012,184.295 727.5,184.5C 732.245,187.927 734.912,192.594 735.5,198.5C 733.791,210.147 731.958,221.814 730,233.5C 728.176,241.991 723.009,247.158 714.5,249C 707.5,249.667 700.5,249.667 693.5,249C 688.284,247.09 682.951,246.09 677.5,246C 670.091,251.749 662.424,257.083 654.5,262C 658.016,267.007 661.683,271.84 665.5,276.5C 666.441,278.05 667.107,279.716 667.5,281.5C 669.131,290.309 667.297,298.309 662,305.5C 630.62,339.72 593.12,348.887 549.5,333C 540.973,328.145 533.307,322.145 526.5,315C 513.563,313.129 500.563,312.462 487.5,313C 485.91,314.046 484.41,315.213 483,316.5C 484.743,345.426 471.743,355.76 444,347.5C 440.255,350.291 436.089,352.457 431.5,354C 423.91,356.206 416.577,355.706 409.5,352.5C 405.052,349.612 402.052,345.612 400.5,340.5C 400.439,336.254 399.439,332.254 397.5,328.5C 394.114,326.807 390.78,325.14 387.5,323.5C 386.71,322.599 385.71,321.932 384.5,321.5C 382.913,318.732 381.08,316.065 379,313.5C 378.433,310.832 377.933,308.166 377.5,305.5C 371.48,305.239 365.48,305.072 359.5,305C 355.719,309.155 351.052,311.822 345.5,313C 330.046,317.489 314.38,318.489 298.5,316C 292.032,314.507 285.865,312.341 280,309.5C 279.436,312.155 278.936,314.821 278.5,317.5C 285.825,340.186 277.992,354.52 255,360.5C 252.901,359.713 250.734,359.38 248.5,359.5C 241.716,354.286 237.716,347.286 236.5,338.5C 237.192,335.064 238.192,331.73 239.5,328.5C 239.154,327.151 238.821,325.817 238.5,324.5C 237.219,319.938 235.386,315.604 233,311.5C 230.772,309.887 228.272,309.22 225.5,309.5C 224.205,308.512 222.872,307.512 221.5,306.5C 218.739,302.151 216.572,297.485 215,292.5C 213.35,283.469 216.85,277.302 225.5,274C 230.722,272.902 235.889,271.735 241,270.5C 239.343,264.545 237.677,258.545 236,252.5C 226.423,257.039 216.923,261.705 207.5,266.5C 213.094,272.374 214.927,279.374 213,287.5C 212.529,289.246 211.862,290.913 211,292.5C 202.092,299.038 192.926,305.205 183.5,311C 177.498,314.422 171.664,314.255 166,310.5C 165.365,319.796 160.532,325.296 151.5,327C 145.763,327.789 140.097,327.456 134.5,326C 131.007,323.693 129.007,320.527 128.5,316.5C 118.317,313.743 108.317,310.41 98.5,306.5C 91.0006,302.514 87.3339,296.181 87.5,287.5C 88.3249,285.199 88.9916,282.865 89.5,280.5C 95.0631,275.04 101.396,270.54 108.5,267C 94.8301,265.867 81.1635,264.7 67.5,263.5C 60.1944,258.968 56.8611,252.301 57.5,243.5C 60.4663,188.841 63.2996,134.175 66,79.5C 65.2871,65.8831 71.6204,57.8831 85,55.5C 95.6305,56.4651 106.297,57.1317 117,57.5C 128.356,56.4293 139.69,55.096 151,53.5C 188.768,55.2008 217.101,72.2008 236,104.5C 238,103.833 240,103.167 242,102.5C 242.697,96.0129 244.031,89.6796 246,83.5C 249.32,78.9231 253.82,76.5898 259.5,76.5C 268.646,77.8921 277.48,80.2254 286,83.5C 290.355,81.6827 294.855,81.1827 299.5,82C 305.196,83.2059 310.863,84.5392 316.5,86C 319.579,87.2477 322.246,89.0811 324.5,91.5C 326.071,90.6906 327.738,90.3573 329.5,90.5C 328.837,86.5097 328.17,82.5097 327.5,78.5C 327.482,72.3652 330.148,67.8652 335.5,65C 355.135,60.0078 374.802,55.1745 394.5,50.5C 406.346,51.687 413.346,58.0203 415.5,69.5C 420.297,69.1343 424.963,68.1343 429.5,66.5C 422.512,57.6167 422.845,49.1167 430.5,41C 439.107,37.698 447.107,33.3647 454.5,28C 461.094,25.6503 466.76,26.9836 471.5,32C 477.5,32.6667 483.5,33.3333 489.5,34C 500.006,35.3402 506.006,41.1735 507.5,51.5 Z" class="svg-elem-1"></path></g>
<g><path style="opacity: 1;" fill="#64dafb" d="M 459.5,39.5 C 461.809,40.3877 463.476,42.0544 464.5,44.5C 465.667,44.8333 466.833,45.1667 468,45.5C 475.562,45.9819 483.062,46.8153 490.5,48C 493.683,49.0183 495.016,51.185 494.5,54.5C 493.589,61.9877 490.756,68.6544 486,74.5C 476.696,85.7159 465.529,94.3826 452.5,100.5C 449.516,98.0164 446.682,95.3497 444,92.5C 443.333,91.5 443.333,90.5 444,89.5C 455.312,82.0217 464.812,72.6884 472.5,61.5C 469.048,59.6099 465.382,59.1099 461.5,60C 455.93,63.2021 450.097,64.7021 444,64.5C 441.833,60.8333 439.667,57.1667 437.5,53.5C 445.506,49.8339 452.839,45.1673 459.5,39.5 Z" class="svg-elem-2"></path></g>
<g><path style="opacity: 1;" fill="#1881a6" d="M 595.5,47.5 C 596.5,47.5 597.5,47.5 598.5,47.5C 599.463,51.1007 600.13,54.7674 600.5,58.5C 598.097,58.393 596.264,59.393 595,61.5C 595.322,66.6861 596.156,71.8528 597.5,77C 597.456,78.7642 597.122,80.4309 596.5,82C 598,83.5 599.5,85 601,86.5C 601.826,91.9945 603.993,96.8278 607.5,101C 609.657,101.078 611.657,101.245 613.5,101.5C 615.275,104.313 616.108,107.313 616,110.5C 608.214,114.041 601.214,113.041 595,107.5C 592.206,102.45 590.206,97.1163 589,91.5C 586.919,90.6669 584.752,90.6669 582.5,91.5C 582.429,88.6887 581.762,86.022 580.5,83.5C 582.685,81.8917 584.018,79.725 584.5,77C 577.75,63.0342 581.417,53.2009 595.5,47.5 Z" class="svg-elem-3"></path></g>
<g><path style="opacity: 0.938;" fill="#6c6c6c" d="M 612.5,50.5 C 615.075,51.5678 617.242,53.2345 619,55.5C 625.315,65.0993 625.482,74.5993 619.5,84C 620.148,85.4397 620.481,86.9397 620.5,88.5C 618.81,88.7583 616.81,88.7583 614.5,88.5C 611.813,81.9195 609.813,75.0862 608.5,68C 613.408,63.0696 614.741,57.2363 612.5,50.5 Z" class="svg-elem-4"></path></g>
<g><path style="opacity: 0.952;" fill="#6e6e6e" d="M 507.5,51.5 C 515.491,56.08 519.157,63.08 518.5,72.5C 513.76,73.5569 510.094,76.2235 507.5,80.5C 504.724,80.0702 502.39,78.9035 500.5,77C 502.333,72.8333 504.167,68.6667 506,64.5C 507.195,60.2486 507.695,55.9152 507.5,51.5 Z" class="svg-elem-5"></path></g>
<g><path style="opacity: 1;" fill="#1681a6" d="M 389.5,64.5 C 396.301,62.7177 400.801,65.0511 403,71.5C 404.365,80.0384 402.865,88.0384 398.5,95.5C 393.869,96.6616 389.202,96.8283 384.5,96C 383.707,92.5894 383.207,89.0894 383,85.5C 382.275,84.9415 381.442,84.6082 380.5,84.5C 369.328,87.2337 358.161,89.9003 347,92.5C 345.289,92.5607 343.956,91.8941 343,90.5C 342.485,86.4227 341.651,82.4227 340.5,78.5C 340.709,77.914 341.043,77.414 341.5,77C 357.582,72.8137 373.582,68.647 389.5,64.5 Z" class="svg-elem-6"></path></g>
<g><path style="opacity: 1;" fill="#0b7ea4" d="M 138.5,67.5 C 163.994,65.368 186.661,72.2013 206.5,88C 229.029,110.738 233.862,136.904 221,166.5C 218.42,171.577 215.253,176.244 211.5,180.5C 220.897,198.191 228.23,216.691 233.5,236C 233.357,238.151 232.357,239.818 230.5,241C 220.044,245.728 209.711,250.728 199.5,256C 194.972,258.41 191.139,257.577 188,253.5C 177.042,236.418 166.208,219.251 155.5,202C 146.348,201.871 137.348,200.704 128.5,198.5C 127.904,215.842 127.071,233.175 126,250.5C 125.626,251.416 125.126,252.25 124.5,253C 107.462,253.431 90.4622,252.765 73.5,251C 73,250.5 72.5,250 72,249.5C 73.9009,190.481 76.5675,131.481 80,72.5C 81.8183,70.0459 84.3183,69.0459 87.5,69.5C 99.3382,70.1298 111.172,70.7964 123,71.5C 128.342,70.3738 133.509,69.0405 138.5,67.5 Z" class="svg-elem-7"></path></g>
<g><path style="opacity: 1;" fill="#1580a5" d="M 531.5,81.5 C 533.911,81.1367 535.411,82.1367 536,84.5C 538,91.1667 540,97.8333 542,104.5C 542.516,101.966 543.683,99.7998 545.5,98C 552.826,97.0186 559.993,97.5186 567,99.5C 565.856,104.751 564.69,110.085 563.5,115.5C 557.145,114.662 550.812,113.662 544.5,112.5C 547.239,121.721 549.573,131.054 551.5,140.5C 546.788,141.626 542.121,142.959 537.5,144.5C 531.011,125.53 525.011,106.364 519.5,87C 523.218,84.4858 527.218,82.6525 531.5,81.5 Z" class="svg-elem-8"></path></g>
<g><path style="opacity: 1;" fill="#0d7ea4" d="M 671.5,86.5 C 674.187,86.3359 676.854,86.5026 679.5,87C 680.701,87.9025 681.535,89.0692 682,90.5C 683.665,99.4868 685.165,108.487 686.5,117.5C 691.513,116.631 696.513,115.631 701.5,114.5C 704.104,115.269 705.938,116.936 707,119.5C 709.652,131.736 711.318,144.07 712,156.5C 710.829,157.893 709.329,158.727 707.5,159C 703.384,159.325 699.384,160.159 695.5,161.5C 697.731,173.379 702.731,183.879 710.5,193C 713.639,194.728 716.972,195.894 720.5,196.5C 720.926,209.36 719.426,222.027 716,234.5C 693.029,240.287 675.029,233.287 662,213.5C 654.899,200.532 649.566,186.865 646,172.5C 640.468,171.897 634.968,172.564 629.5,174.5C 627.617,174.124 626.117,173.124 625,171.5C 622.341,158.553 620.341,145.553 619,132.5C 620.171,131.107 621.671,130.273 623.5,130C 627.17,129.452 630.837,128.952 634.5,128.5C 632.61,117.893 631.443,107.226 631,96.5C 632.648,95.283 634.481,94.4497 636.5,94C 648.365,91.7956 660.031,89.2956 671.5,86.5 Z" class="svg-elem-9"></path></g>
<g><path style="opacity: 1;" fill="#65dafb" d="M 257.5,90.5 C 264.288,90.7245 270.955,91.7245 277.5,93.5C 277.219,104.628 274.719,115.294 270,125.5C 268.938,126.097 267.772,126.43 266.5,126.5C 261.966,125.242 257.466,123.909 253,122.5C 253.733,111.738 255.233,101.071 257.5,90.5 Z" class="svg-elem-10"></path></g>
<g><path style="opacity: 0.867;" fill="#6f6f6f" d="M 694.5,89.5 C 699.655,91.9877 702.988,95.9877 704.5,101.5C 701.794,101.575 699.127,101.908 696.5,102.5C 696.156,98.1055 695.49,93.7722 694.5,89.5 Z" class="svg-elem-11"></path></g>
<g><path style="opacity: 1;" fill="#64dafb" d="M 293.5,94.5 C 299.963,95.3258 306.297,96.6591 312.5,98.5C 312.125,122.794 303.458,143.628 286.5,161C 283.905,163.213 281.072,165.047 278,166.5C 273.487,163.674 269.32,160.508 265.5,157C 272.88,149.61 278.714,141.11 283,131.5C 287.567,119.359 291.067,107.025 293.5,94.5 Z" class="svg-elem-12"></path></g>
<g><path style="opacity: 1;" fill="#107fa4" d="M 368.5,96.5 C 372.514,96.3345 376.514,96.5012 380.5,97C 382.916,109.522 380.916,121.355 374.5,132.5C 369.832,133.503 365.165,133.337 360.5,132C 359.903,130.938 359.57,129.772 359.5,128.5C 361.045,118.568 361.878,108.568 362,98.5C 364.277,97.8828 366.444,97.2161 368.5,96.5 Z" class="svg-elem-13"></path></g>
<g><path style="opacity: 1;" fill="#0c7ea4" d="M 486.5,111.5 C 491.179,111.334 495.845,111.501 500.5,112C 501.126,112.75 501.626,113.584 502,114.5C 502.19,135.027 504.19,155.36 508,175.5C 509.962,183.962 515.129,189.295 523.5,191.5C 523.833,192.167 524.167,192.833 524.5,193.5C 521.615,205.042 518.115,216.375 514,227.5C 502.67,229.506 492.004,227.506 482,221.5C 454.427,240.757 426.594,241.257 398.5,223C 376.667,203.185 370.833,179.351 381,151.5C 391.869,128.984 409.869,117.318 435,116.5C 439.68,116.659 444.347,116.992 449,117.5C 451.891,117.74 454.391,116.907 456.5,115C 466.66,113.936 476.66,112.769 486.5,111.5 Z" class="svg-elem-14"></path></g>
<g><path style="opacity: 1;" fill="#fcfdfe" d="M 134.5,113.5 C 144.988,112.296 154.654,114.463 163.5,120C 174.67,132.958 174.004,145.292 161.5,157C 151.959,161.412 142.292,161.578 132.5,157.5C 132.167,153.833 131.833,150.167 131.5,146.5C 131.521,135.237 132.521,124.237 134.5,113.5 Z" class="svg-elem-15"></path></g>
<g><path style="opacity: 0.945;" fill="#6c6c6c" d="M 719.5,118.5 C 723.099,120.263 725.932,122.93 728,126.5C 731.209,140.587 734.042,154.753 736.5,169C 735.719,175.579 732.719,180.746 727.5,184.5C 724.012,184.295 720.679,183.461 717.5,182C 715.57,178.806 713.903,175.473 712.5,172C 720.754,168.403 725.088,162.069 725.5,153C 723.885,141.385 721.885,129.885 719.5,118.5 Z" class="svg-elem-16"></path></g>
<g><path style="opacity: 1;" fill="#fbfcfd" d="M 436.5,153.5 C 440.514,153.334 444.514,153.501 448.5,154C 451.034,154.516 453.2,155.683 455,157.5C 456.521,168.628 458.688,179.628 461.5,190.5C 460.99,192.088 459.99,193.255 458.5,194C 438.565,202.037 426.898,195.537 423.5,174.5C 424.228,165.137 428.561,158.137 436.5,153.5 Z" class="svg-elem-17"></path></g>
<g><path style="opacity: 1;" fill="#62dafb" d="M 312.5,172.5 C 342.445,170.727 362.278,184.06 372,212.5C 373.991,221.336 372.158,229.17 366.5,236C 353.928,244.953 340.261,251.786 325.5,256.5C 323.626,256.61 322.126,255.944 321,254.5C 316.369,247.401 311.869,240.234 307.5,233C 310.541,229.629 314.208,226.963 318.5,225C 323.807,220.856 323.141,217.523 316.5,215C 299.403,214.103 291.903,222.27 294,239.5C 300.209,258.696 313.376,266.862 333.5,264C 338.393,263.068 343.227,261.902 348,260.5C 350.406,260.703 352.406,261.703 354,263.5C 354.578,274.327 353.578,284.993 351,295.5C 347.094,298.807 342.594,300.974 337.5,302C 303.564,310.696 276.73,300.862 257,272.5C 238.309,229.052 250.476,197.552 293.5,178C 299.828,175.673 306.162,173.84 312.5,172.5 Z" class="svg-elem-18"></path></g>
<g><path style="opacity: 1;" fill="#62dafb" d="M 586.5,194.5 C 600.328,193.127 613.661,194.96 626.5,200C 628.448,201.439 629.781,203.272 630.5,205.5C 628.472,215.946 625.972,226.279 623,236.5C 622.167,237.333 621.333,238.167 620.5,239C 616.432,238.655 612.432,237.655 608.5,236C 597.924,233.745 588.424,235.912 580,242.5C 573.069,253.19 572.735,264.19 579,275.5C 587.073,284.453 596.907,286.953 608.5,283C 618.223,279.274 626.223,273.274 632.5,265C 635.46,262.948 638.293,263.114 641,265.5C 645.333,271.5 649.667,277.5 654,283.5C 656.338,289.133 655.338,294.133 651,298.5C 625.676,326.122 595.176,334.289 559.5,323C 533.523,310.905 520.856,290.405 521.5,261.5C 521.821,236.018 533.155,217.184 555.5,205C 565.441,199.965 575.775,196.465 586.5,194.5 Z" class="svg-elem-19"></path></g>
<g><path style="opacity: 0.96;" fill="#6c6c6c" d="M 735.5,198.5 C 742.014,202.02 745.347,207.52 745.5,215C 743.984,227.95 741.817,240.783 739,253.5C 733.953,262.193 726.286,266.193 716,265.5C 706.9,265.176 698.067,263.509 689.5,260.5C 681.779,266.353 673.779,271.686 665.5,276.5C 661.683,271.84 658.016,267.007 654.5,262C 662.424,257.083 670.091,251.749 677.5,246C 682.951,246.09 688.284,247.09 693.5,249C 700.5,249.667 707.5,249.667 714.5,249C 723.009,247.158 728.176,241.991 730,233.5C 731.958,221.814 733.791,210.147 735.5,198.5 Z" class="svg-elem-20"></path></g>
<g><path style="opacity: 1;" fill="#1681a6" d="M 462.5,269.5 C 462.5,270.833 462.5,272.167 462.5,273.5C 461.5,273.5 460.5,273.5 459.5,273.5C 455.486,273.666 451.486,273.499 447.5,273C 444.352,269.929 441.019,267.096 437.5,264.5C 436.479,263.998 436.312,263.332 437,262.5C 441.78,257.355 447.614,254.855 454.5,255C 460.155,258.14 462.822,262.974 462.5,269.5 Z" class="svg-elem-21"></path></g>
<g><path style="opacity: 1;" fill="#1c82a7" d="M 157.5,256.5 C 158.833,256.5 160.167,256.5 161.5,256.5C 159.172,275.308 156.005,293.974 152,312.5C 148.417,314.29 144.584,314.957 140.5,314.5C 143.57,295.482 146.903,276.482 150.5,257.5C 153.059,257.802 155.393,257.468 157.5,256.5 Z" class="svg-elem-22"></path></g>
<g><path style="opacity: 1;" fill="#1280a5" d="M 410.5,259.5 C 417.091,259.48 423.091,261.313 428.5,265C 425.257,268.821 422.257,272.821 419.5,277C 414.846,278.607 410.179,280.107 405.5,281.5C 404.578,276.528 404.412,271.528 405,266.5C 405.967,263.379 407.8,261.046 410.5,259.5 Z" class="svg-elem-23"></path></g>
<g><path style="opacity: 0.956;" fill="#6e6e6e" d="M 67.5,263.5 C 81.1635,264.7 94.8301,265.867 108.5,267C 101.396,270.54 95.0631,275.04 89.5,280.5C 77.4537,280.774 70.1204,275.107 67.5,263.5 Z" class="svg-elem-24"></path></g>
<g><path style="opacity: 1;" fill="#1781a6" d="M 170.5,266.5 C 179.881,269.904 189.214,273.404 198.5,277C 201.269,280.607 200.936,283.94 197.5,287C 190.332,291.083 183.332,295.416 176.5,300C 175.552,300.483 174.552,300.649 173.5,300.5C 173.335,296.818 173.501,293.152 174,289.5C 177.416,287.208 180.916,285.041 184.5,283C 180.35,281.171 176.184,279.337 172,277.5C 171.452,273.83 170.952,270.163 170.5,266.5 Z" class="svg-elem-25"></path></g>
<g><path style="opacity: 1;" fill="#1d84a8" d="M 432.5,267.5 C 435.286,269.113 437.953,270.946 440.5,273C 436.423,273.515 432.423,274.349 428.5,275.5C 428.167,275.167 427.833,274.833 427.5,274.5C 429.422,272.313 431.088,269.98 432.5,267.5 Z" class="svg-elem-26"></path></g>
<g><path style="opacity: 1;" fill="#1a82a7" d="M 126.5,270.5 C 128.045,271.23 128.878,272.563 129,274.5C 129.814,276.902 129.647,279.235 128.5,281.5C 124.833,283.667 121.167,285.833 117.5,288C 122.142,289.654 126.642,291.487 131,293.5C 131.825,297.211 131.659,300.878 130.5,304.5C 121.5,301 112.5,297.5 103.5,294C 100.941,290.925 100.941,287.925 103.5,285C 111.231,280.142 118.898,275.309 126.5,270.5 Z" class="svg-elem-27"></path></g>
<g><path style="opacity: 1;" fill="#b0d5e1" d="M 462.5,269.5 C 463.451,270.919 463.784,272.585 463.5,274.5C 461.901,274.768 460.568,274.434 459.5,273.5C 460.5,273.5 461.5,273.5 462.5,273.5C 462.5,272.167 462.5,270.833 462.5,269.5 Z" class="svg-elem-28"></path></g>
<g><path style="opacity: 1;" fill="#1681a6" d="M 435.5,278.5 C 439.182,278.335 442.848,278.501 446.5,279C 451.323,284.324 455.657,289.991 459.5,296C 457.248,302.671 454.581,309.171 451.5,315.5C 444.065,318.221 436.398,319.388 428.5,319C 422.949,313.797 418.616,307.797 415.5,301C 417.164,293.676 420.164,287.01 424.5,281C 428.347,280.367 432.014,279.533 435.5,278.5 Z" class="svg-elem-29"></path></g>
<g><path style="opacity: 1;" fill="#1b84a8" d="M 453.5,279.5 C 456.344,278.449 459.344,278.449 462.5,279.5C 462.196,282.522 461.696,285.522 461,288.5C 458.636,285.31 456.136,282.31 453.5,279.5 Z" class="svg-elem-30"></path></g>
<g><path style="opacity: 1;" fill="#1982a6" d="M 467.5,280.5 C 488.373,286.738 489.873,296.071 472,308.5C 469.895,303.79 467.395,299.29 464.5,295C 466.007,290.297 467.007,285.464 467.5,280.5 Z" class="svg-elem-31"></path></g>
<g><path style="opacity: 0.959;" fill="#6c6c6c" d="M 667.5,281.5 C 681.112,294.309 682.279,307.976 671,322.5C 638.009,357.372 599.509,365.206 555.5,346C 548.38,341.376 541.714,336.209 535.5,330.5C 522.545,328.907 509.545,328.407 496.5,329C 495.333,330.167 494.167,331.333 493,332.5C 494.175,340.402 493.175,348.068 490,355.5C 484.304,363.626 476.471,367.126 466.5,366C 462.267,365.067 458.1,363.9 454,362.5C 443.144,372.178 431.311,373.678 418.5,367C 414.098,363.028 411.098,358.195 409.5,352.5C 416.577,355.706 423.91,356.206 431.5,354C 436.089,352.457 440.255,350.291 444,347.5C 471.743,355.76 484.743,345.426 483,316.5C 484.41,315.213 485.91,314.046 487.5,313C 500.563,312.462 513.563,313.129 526.5,315C 533.307,322.145 540.973,328.145 549.5,333C 593.12,348.887 630.62,339.72 662,305.5C 667.297,298.309 669.131,290.309 667.5,281.5 Z" class="svg-elem-32"></path></g>
<g><path style="opacity: 1;" fill="#1681a6" d="M 233.5,284.5 C 240.594,283.108 246.428,285.108 251,290.5C 252.941,294.048 254.607,297.714 256,301.5C 256.739,302.574 257.739,303.241 259,303.5C 260.578,302.453 262.078,302.453 263.5,303.5C 265.251,305.972 266.085,308.639 266,311.5C 264.243,312.119 263.076,313.286 262.5,315C 264.471,319.108 266.304,323.275 268,327.5C 269.317,338.968 264.483,345.301 253.5,346.5C 252.598,343.96 251.598,341.46 250.5,339C 251.604,337.18 253.104,335.68 255,334.5C 254.241,328.443 252.407,322.61 249.5,317C 249.95,315.715 250.617,314.548 251.5,313.5C 249.253,312.755 247.42,311.422 246,309.5C 244.107,305.292 241.94,301.292 239.5,297.5C 236.826,296.483 234.16,296.316 231.5,297C 229.298,294.118 228.131,290.951 228,287.5C 229.876,286.391 231.709,285.391 233.5,284.5 Z" class="svg-elem-33"></path></g>
<g><path style="opacity: 1;" fill="#328cae" d="M 413.5,283.5 C 414.675,283.281 415.675,283.614 416.5,284.5C 414.637,288.092 412.971,291.759 411.5,295.5C 410.171,292.842 408.838,290.176 407.5,287.5C 409.565,286.143 411.565,284.81 413.5,283.5 Z" class="svg-elem-34"></path></g>
<g><path style="opacity: 0.957;" fill="#6d6d6d" d="M 221.5,306.5 C 221.489,308.017 220.823,309.184 219.5,310C 210.001,316.251 200.334,322.251 190.5,328C 185.489,329.736 180.656,329.236 176,326.5C 175.637,332.846 172.804,337.679 167.5,341C 162.695,341.995 157.861,342.829 153,343.5C 149.681,343.212 146.515,342.379 143.5,341C 140.694,337.846 138.027,334.679 135.5,331.5C 125.388,327.963 115.388,324.129 105.5,320C 100.916,316.666 98.5831,312.166 98.5,306.5C 108.317,310.41 118.317,313.743 128.5,316.5C 129.007,320.527 131.007,323.693 134.5,326C 140.097,327.456 145.763,327.789 151.5,327C 160.532,325.296 165.365,319.796 166,310.5C 171.664,314.255 177.498,314.422 183.5,311C 192.926,305.205 202.092,299.038 211,292.5C 211.862,290.913 212.529,289.246 213,287.5C 214.927,279.374 213.094,272.374 207.5,266.5C 216.923,261.705 226.423,257.039 236,252.5C 237.677,258.545 239.343,264.545 241,270.5C 235.889,271.735 230.722,272.902 225.5,274C 216.85,277.302 213.35,283.469 215,292.5C 216.572,297.485 218.739,302.151 221.5,306.5 Z" class="svg-elem-35"></path></g>
<g><path style="opacity: 1;" fill="#fafcfd" d="M 432.5,289.5 C 440.539,287.678 445.539,290.678 447.5,298.5C 445.825,306.68 440.825,309.847 432.5,308C 425.84,301.666 425.84,295.5 432.5,289.5 Z" class="svg-elem-36"></path></g>
<g><path style="opacity: 1;" fill="#1581a6" d="M 407.5,314.5 C 406.833,315.167 406.167,315.833 405.5,316.5C 391.646,314.557 387.812,307.557 394,295.5C 396.695,293.306 399.528,291.306 402.5,289.5C 404.836,294.172 407.169,298.838 409.5,303.5C 408.352,307.089 407.685,310.756 407.5,314.5 Z" class="svg-elem-37"></path></g>
<g><path style="opacity: 1;" fill="#2286a9" d="M 462.5,302.5 C 468.832,309.681 467.165,313.514 457.5,314C 459.656,310.361 461.323,306.528 462.5,302.5 Z" class="svg-elem-38"></path></g>
<g><path style="opacity: 0.96;" fill="#6c6c6c" d="M 384.5,321.5 C 379.511,320.778 374.511,320.612 369.5,321C 366.772,323.392 363.772,325.392 360.5,327C 344.518,332.48 328.184,334.147 311.5,332C 304.368,330.677 297.534,328.51 291,325.5C 289.796,327.823 288.962,330.323 288.5,333C 295.509,351.658 290.176,365.324 272.5,374C 259.35,377.683 251.35,372.85 248.5,359.5C 250.734,359.38 252.901,359.713 255,360.5C 277.992,354.52 285.825,340.186 278.5,317.5C 278.936,314.821 279.436,312.155 280,309.5C 285.865,312.341 292.032,314.507 298.5,316C 314.38,318.489 330.046,317.489 345.5,313C 351.052,311.822 355.719,309.155 359.5,305C 365.48,305.072 371.48,305.239 377.5,305.5C 377.933,308.166 378.433,310.832 379,313.5C 381.08,316.065 382.913,318.732 384.5,321.5 Z" class="svg-elem-39"></path></g>
<g><path style="opacity: 0.902;" fill="#707070" d="M 225.5,309.5 C 228.272,309.22 230.772,309.887 233,311.5C 235.386,315.604 237.219,319.938 238.5,324.5C 234.862,324.262 232.029,322.596 230,319.5C 228.214,316.264 226.714,312.93 225.5,309.5 Z" class="svg-elem-40"></path></g>
<g><path style="opacity: 1;" fill="#338dae" d="M 412.5,309.5 C 413.496,309.414 414.329,309.748 415,310.5C 417.045,313.423 419.212,316.257 421.5,319C 412.472,321.424 409.472,318.257 412.5,309.5 Z" class="svg-elem-41"></path></g>
<g><path style="opacity: 1;" fill="#91c5d6" d="M 407.5,314.5 C 407.719,315.675 407.386,316.675 406.5,317.5C 405.893,317.376 405.56,317.043 405.5,316.5C 406.167,315.833 406.833,315.167 407.5,314.5 Z" class="svg-elem-42"></path></g>
<g><path style="opacity: 1;" fill="#1280a5" d="M 465.5,316.5 C 466.822,316.33 467.989,316.663 469,317.5C 472.206,337.234 464.873,342.567 447,333.5C 448.921,329.187 451.421,325.02 454.5,321C 458.449,319.943 462.116,318.443 465.5,316.5 Z" class="svg-elem-43"></path></g>
<g><path style="opacity: 0.869;" fill="#6d6d6d" d="M 387.5,323.5 C 390.78,325.14 394.114,326.807 397.5,328.5C 399.439,332.254 400.439,336.254 400.5,340.5C 393.485,336.826 389.151,331.159 387.5,323.5 Z" class="svg-elem-44"></path></g>
<g><path style="opacity: 1;" fill="#2989ac" d="M 443.5,322.5 C 444.873,322.343 446.207,322.51 447.5,323C 445.451,325.593 443.285,328.093 441,330.5C 438.697,328.607 436.53,326.607 434.5,324.5C 437.642,323.833 440.642,323.166 443.5,322.5 Z" class="svg-elem-45"></path></g>
<g><path style="opacity: 1;" fill="#1b82a7" d="M 411.5,323.5 C 416.822,324.029 422.156,324.529 427.5,325C 430.708,328.377 434.042,331.544 437.5,334.5C 432.879,340.311 426.879,343.145 419.5,343C 413.448,338.039 410.782,331.539 411.5,323.5 Z" class="svg-elem-46"></path></g>
</svg>
