<?xml version="1.0"?>
<svg xmlns="http://www.w3.org/2000/svg"
     xmlns:xlink="http://www.w3.org/1999/xlink"
     version="1.1"
     width="100%" height="100%"
     viewBox="0 0 200 200"> <defs>
  <symbol clip-rule="evenodd" fill-rule="evenodd" height="100%" id="svg_1" preserveAspectRatio="xMidYMid meet" version="1.1" viewBox="0 0 200 200" width="100%" xmlns="http://www.w3.org/2000/svg">
   <style>  


@-webkit-keyframes animate-svg-fill-1{0%{fill:transparent}100%{fill:rgb(253,253,254)}}@keyframes animate-svg-fill-1{0%{fill:transparent}100%{fill:rgb(253,253,254)}}.svg-elem-1{-webkit-animation:animate-svg-fill-1 0.2s ease-in-out 0.4s both;animation:animate-svg-fill-1 0.2s ease-in-out 0.4s both}@-webkit-keyframes animate-svg-fill-2{0%{fill:transparent}100%{fill:rgb(100,218,251)}}@keyframes animate-svg-fill-2{0%{fill:transparent}100%{fill:rgb(100,218,251)}}.svg-elem-2{-webkit-animation:animate-svg-fill-2 0.2s ease-in-out 0.5s both;animation:animate-svg-fill-2 0.2s ease-in-out 0.5s both}@-webkit-keyframes animate-svg-fill-3{0%{fill:transparent}100%{fill:rgb(24,129,166)}}@keyframes animate-svg-fill-3{0%{fill:transparent}100%{fill:rgb(24,129,166)}}.svg-elem-3{-webkit-animation:animate-svg-fill-3 0.2s ease-in-out 0.6000000000000001s both;animation:animate-svg-fill-3 0.2s ease-in-out 0.6000000000000001s both}@-webkit-keyframes animate-svg-fill-4{0%{fill:transparent}100%{fill:rgb(108,108,108)}}@keyframes animate-svg-fill-4{0%{fill:transparent}100%{fill:rgb(108,108,108)}}.svg-elem-4{-webkit-animation:animate-svg-fill-4 0.2s ease-in-out 0.7000000000000001s both;animation:animate-svg-fill-4 0.2s ease-in-out 0.7000000000000001s both}@-webkit-keyframes animate-svg-fill-5{0%{fill:transparent}100%{fill:rgb(110,110,110)}}@keyframes animate-svg-fill-5{0%{fill:transparent}100%{fill:rgb(110,110,110)}}.svg-elem-5{-webkit-animation:animate-svg-fill-5 0.2s ease-in-out 0.8s both;animation:animate-svg-fill-5 0.2s ease-in-out 0.8s both}@-webkit-keyframes animate-svg-fill-6{0%{fill:transparent}100%{fill:rgb(22,129,166)}}@keyframes animate-svg-fill-6{0%{fill:transparent}100%{fill:rgb(22,129,166)}}.svg-elem-6{-webkit-animation:animate-svg-fill-6 0.2s ease-in-out 0.9s both;animation:animate-svg-fill-6 0.2s ease-in-out 0.9s both}@-webkit-keyframes animate-svg-fill-7{0%{fill:transparent}100%{fill:rgb(11,126,164)}}@keyframes animate-svg-fill-7{0%{fill:transparent}100%{fill:rgb(11,126,164)}}.svg-elem-7{-webkit-animation:animate-svg-fill-7 0.2s ease-in-out 1s both;animation:animate-svg-fill-7 0.2s ease-in-out 1s both}@-webkit-keyframes animate-svg-fill-8{0%{fill:transparent}100%{fill:rgb(21,128,165)}}@keyframes animate-svg-fill-8{0%{fill:transparent}100%{fill:rgb(21,128,165)}}.svg-elem-8{-webkit-animation:animate-svg-fill-8 0.2s ease-in-out 1.1s both;animation:animate-svg-fill-8 0.2s ease-in-out 1.1s both}@-webkit-keyframes animate-svg-fill-9{0%{fill:transparent}100%{fill:rgb(13,126,164)}}@keyframes animate-svg-fill-9{0%{fill:transparent}100%{fill:rgb(13,126,164)}}.svg-elem-9{-webkit-animation:animate-svg-fill-9 0.2s ease-in-out 1.2000000000000002s both;animation:animate-svg-fill-9 0.2s ease-in-out 1.2000000000000002s both}@-webkit-keyframes animate-svg-fill-10{0%{fill:transparent}100%{fill:rgb(101,218,251)}}@keyframes animate-svg-fill-10{0%{fill:transparent}100%{fill:rgb(101,218,251)}}.svg-elem-10{-webkit-animation:animate-svg-fill-10 0.2s ease-in-out 1.3s both;animation:animate-svg-fill-10 0.2s ease-in-out 1.3s both}@-webkit-keyframes animate-svg-fill-11{0%{fill:transparent}100%{fill:rgb(111,111,111)}}@keyframes animate-svg-fill-11{0%{fill:transparent}100%{fill:rgb(111,111,111)}}.svg-elem-11{-webkit-animation:animate-svg-fill-11 0.2s ease-in-out 1.4s both;animation:animate-svg-fill-11 0.2s ease-in-out 1.4s both}@-webkit-keyframes animate-svg-fill-12{0%{fill:transparent}100%{fill:rgb(100,218,251)}}@keyframes animate-svg-fill-12{0%{fill:transparent}100%{fill:rgb(100,218,251)}}.svg-elem-12{-webkit-animation:animate-svg-fill-12 0.2s ease-in-out 1.5s both;animation:animate-svg-fill-12 0.2s ease-in-out 1.5s both}@-webkit-keyframes animate-svg-fill-13{0%{fill:transparent}100%{fill:rgb(16,127,164)}}@keyframes animate-svg-fill-13{0%{fill:transparent}100%{fill:rgb(16,127,164)}}.svg-elem-13{-webkit-animation:animate-svg-fill-13 0.2s ease-in-out 1.6s both;animation:animate-svg-fill-13 0.2s ease-in-out 1.6s both}@-webkit-keyframes animate-svg-fill-14{0%{fill:transparent}100%{fill:rgb(12,126,164)}}@keyframes animate-svg-fill-14{0%{fill:transparent}100%{fill:rgb(12,126,164)}}.svg-elem-14{-webkit-animation:animate-svg-fill-14 0.2s ease-in-out 1.7000000000000002s both;animation:animate-svg-fill-14 0.2s ease-in-out 1.7000000000000002s both}@-webkit-keyframes animate-svg-fill-15{0%{fill:transparent}100%{fill:rgb(252,253,254)}}@keyframes animate-svg-fill-15{0%{fill:transparent}100%{fill:rgb(252,253,254)}}.svg-elem-15{-webkit-animation:animate-svg-fill-15 0.2s ease-in-out 1.8000000000000003s both;animation:animate-svg-fill-15 0.2s ease-in-out 1.8000000000000003s both}@-webkit-keyframes animate-svg-fill-16{0%{fill:transparent}100%{fill:rgb(108,108,108)}}@keyframes animate-svg-fill-16{0%{fill:transparent}100%{fill:rgb(108,108,108)}}.svg-elem-16{-webkit-animation:animate-svg-fill-16 0.2s ease-in-out 1.9s both;animation:animate-svg-fill-16 0.2s ease-in-out 1.9s both}@-webkit-keyframes animate-svg-fill-17{0%{fill:transparent}100%{fill:rgb(251,252,253)}}@keyframes animate-svg-fill-17{0%{fill:transparent}100%{fill:rgb(251,252,253)}}.svg-elem-17{-webkit-animation:animate-svg-fill-17 0.2s ease-in-out 2s both;animation:animate-svg-fill-17 0.2s ease-in-out 2s both}@-webkit-keyframes animate-svg-fill-18{0%{fill:transparent}100%{fill:rgb(98,218,251)}}@keyframes animate-svg-fill-18{0%{fill:transparent}100%{fill:rgb(98,218,251)}}.svg-elem-18{-webkit-animation:animate-svg-fill-18 0.2s ease-in-out 2.1s both;animation:animate-svg-fill-18 0.2s ease-in-out 2.1s both}@-webkit-keyframes animate-svg-fill-19{0%{fill:transparent}100%{fill:rgb(98,218,251)}}@keyframes animate-svg-fill-19{0%{fill:transparent}100%{fill:rgb(98,218,251)}}.svg-elem-19{-webkit-animation:animate-svg-fill-19 0.2s ease-in-out 2.2s both;animation:animate-svg-fill-19 0.2s ease-in-out 2.2s both}@-webkit-keyframes animate-svg-fill-20{0%{fill:transparent}100%{fill:rgb(108,108,108)}}@keyframes animate-svg-fill-20{0%{fill:transparent}100%{fill:rgb(108,108,108)}}.svg-elem-20{-webkit-animation:animate-svg-fill-20 0.2s ease-in-out 2.3000000000000003s both;animation:animate-svg-fill-20 0.2s ease-in-out 2.3000000000000003s both}@-webkit-keyframes animate-svg-fill-21{0%{fill:transparent}100%{fill:rgb(22,129,166)}}@keyframes animate-svg-fill-21{0%{fill:transparent}100%{fill:rgb(22,129,166)}}.svg-elem-21{-webkit-animation:animate-svg-fill-21 0.2s ease-in-out 2.4s both;animation:animate-svg-fill-21 0.2s ease-in-out 2.4s both}@-webkit-keyframes animate-svg-fill-22{0%{fill:transparent}100%{fill:rgb(28,130,167)}}@keyframes animate-svg-fill-22{0%{fill:transparent}100%{fill:rgb(28,130,167)}}.svg-elem-22{-webkit-animation:animate-svg-fill-22 0.2s ease-in-out 2.5s both;animation:animate-svg-fill-22 0.2s ease-in-out 2.5s both}@-webkit-keyframes animate-svg-fill-23{0%{fill:transparent}100%{fill:rgb(18,128,165)}}@keyframes animate-svg-fill-23{0%{fill:transparent}100%{fill:rgb(18,128,165)}}.svg-elem-23{-webkit-animation:animate-svg-fill-23 0.2s ease-in-out 2.6s both;animation:animate-svg-fill-23 0.2s ease-in-out 2.6s both}@-webkit-keyframes animate-svg-fill-24{0%{fill:transparent}100%{fill:rgb(110,110,110)}}@keyframes animate-svg-fill-24{0%{fill:transparent}100%{fill:rgb(110,110,110)}}.svg-elem-24{-webkit-animation:animate-svg-fill-24 0.2s ease-in-out 2.7s both;animation:animate-svg-fill-24 0.2s ease-in-out 2.7s both}@-webkit-keyframes animate-svg-fill-25{0%{fill:transparent}100%{fill:rgb(23,129,166)}}@keyframes animate-svg-fill-25{0%{fill:transparent}100%{fill:rgb(23,129,166)}}.svg-elem-25{-webkit-animation:animate-svg-fill-25 0.2s ease-in-out 2.8000000000000003s both;animation:animate-svg-fill-25 0.2s ease-in-out 2.8000000000000003s both}@-webkit-keyframes animate-svg-fill-26{0%{fill:transparent}100%{fill:rgb(29,132,168)}}@keyframes animate-svg-fill-26{0%{fill:transparent}100%{fill:rgb(29,132,168)}}.svg-elem-26{-webkit-animation:animate-svg-fill-26 0.2s ease-in-out 2.9s both;animation:animate-svg-fill-26 0.2s ease-in-out 2.9s both}@-webkit-keyframes animate-svg-fill-27{0%{fill:transparent}100%{fill:rgb(26,130,167)}}@keyframes animate-svg-fill-27{0%{fill:transparent}100%{fill:rgb(26,130,167)}}.svg-elem-27{-webkit-animation:animate-svg-fill-27 0.2s ease-in-out 3s both;animation:animate-svg-fill-27 0.2s ease-in-out 3s both}@-webkit-keyframes animate-svg-fill-28{0%{fill:transparent}100%{fill:rgb(176,213,225)}}@keyframes animate-svg-fill-28{0%{fill:transparent}100%{fill:rgb(176,213,225)}}.svg-elem-28{-webkit-animation:animate-svg-fill-28 0.2s ease-in-out 3.1s both;animation:animate-svg-fill-28 0.2s ease-in-out 3.1s both}@-webkit-keyframes animate-svg-fill-29{0%{fill:transparent}100%{fill:rgb(22,129,166)}}@keyframes animate-svg-fill-29{0%{fill:transparent}100%{fill:rgb(22,129,166)}}.svg-elem-29{-webkit-animation:animate-svg-fill-29 0.2s ease-in-out 3.2s both;animation:animate-svg-fill-29 0.2s ease-in-out 3.2s both}@-webkit-keyframes animate-svg-fill-30{0%{fill:transparent}100%{fill:rgb(27,132,168)}}@keyframes animate-svg-fill-30{0%{fill:transparent}100%{fill:rgb(27,132,168)}}.svg-elem-30{-webkit-animation:animate-svg-fill-30 0.2s ease-in-out 3.3000000000000003s both;animation:animate-svg-fill-30 0.2s ease-in-out 3.3000000000000003s both}@-webkit-keyframes animate-svg-fill-31{0%{fill:transparent}100%{fill:rgb(25,130,166)}}@keyframes animate-svg-fill-31{0%{fill:transparent}100%{fill:rgb(25,130,166)}}.svg-elem-31{-webkit-animation:animate-svg-fill-31 0.2s ease-in-out 3.4s both;animation:animate-svg-fill-31 0.2s ease-in-out 3.4s both}@-webkit-keyframes animate-svg-fill-32{0%{fill:transparent}100%{fill:rgb(108,108,108)}}@keyframes animate-svg-fill-32{0%{fill:transparent}100%{fill:rgb(108,108,108)}}.svg-elem-32{-webkit-animation:animate-svg-fill-32 0.2s ease-in-out 3.5s both;animation:animate-svg-fill-32 0.2s ease-in-out 3.5s both}@-webkit-keyframes animate-svg-fill-33{0%{fill:transparent}100%{fill:rgb(22,129,166)}}@keyframes animate-svg-fill-33{0%{fill:transparent}100%{fill:rgb(22,129,166)}}.svg-elem-33{-webkit-animation:animate-svg-fill-33 0.2s ease-in-out 3.6s both;animation:animate-svg-fill-33 0.2s ease-in-out 3.6s both}@-webkit-keyframes animate-svg-fill-34{0%{fill:transparent}100%{fill:rgb(50,140,174)}}@keyframes animate-svg-fill-34{0%{fill:transparent}100%{fill:rgb(50,140,174)}}.svg-elem-34{-webkit-animation:animate-svg-fill-34 0.2s ease-in-out 3.7s both;animation:animate-svg-fill-34 0.2s ease-in-out 3.7s both}@-webkit-keyframes animate-svg-fill-35{0%{fill:transparent}100%{fill:rgb(109,109,109)}}@keyframes animate-svg-fill-35{0%{fill:transparent}100%{fill:rgb(109,109,109)}}.svg-elem-35{-webkit-animation:animate-svg-fill-35 0.2s ease-in-out 3.8000000000000003s both;animation:animate-svg-fill-35 0.2s ease-in-out 3.8000000000000003s both}@-webkit-keyframes animate-svg-fill-36{0%{fill:transparent}100%{fill:rgb(250,252,253)}}@keyframes animate-svg-fill-36{0%{fill:transparent}100%{fill:rgb(250,252,253)}}.svg-elem-36{-webkit-animation:animate-svg-fill-36 0.2s ease-in-out 3.9s both;animation:animate-svg-fill-36 0.2s ease-in-out 3.9s both}@-webkit-keyframes animate-svg-fill-37{0%{fill:transparent}100%{fill:rgb(21,129,166)}}@keyframes animate-svg-fill-37{0%{fill:transparent}100%{fill:rgb(21,129,166)}}.svg-elem-37{-webkit-animation:animate-svg-fill-37 0.2s ease-in-out 4s both;animation:animate-svg-fill-37 0.2s ease-in-out 4s both}@-webkit-keyframes animate-svg-fill-38{0%{fill:transparent}100%{fill:rgb(34,134,169)}}@keyframes animate-svg-fill-38{0%{fill:transparent}100%{fill:rgb(34,134,169)}}.svg-elem-38{-webkit-animation:animate-svg-fill-38 0.2s ease-in-out 4.1000000000000005s both;animation:animate-svg-fill-38 0.2s ease-in-out 4.1000000000000005s both}@-webkit-keyframes animate-svg-fill-39{0%{fill:transparent}100%{fill:rgb(108,108,108)}}@keyframes animate-svg-fill-39{0%{fill:transparent}100%{fill:rgb(108,108,108)}}.svg-elem-39{-webkit-animation:animate-svg-fill-39 0.2s ease-in-out 4.2s both;animation:animate-svg-fill-39 0.2s ease-in-out 4.2s both}@-webkit-keyframes animate-svg-fill-40{0%{fill:transparent}100%{fill:rgb(112,112,112)}}@keyframes animate-svg-fill-40{0%{fill:transparent}100%{fill:rgb(112,112,112)}}.svg-elem-40{-webkit-animation:animate-svg-fill-40 0.2s ease-in-out 4.300000000000001s both;animation:animate-svg-fill-40 0.2s ease-in-out 4.300000000000001s both}@-webkit-keyframes animate-svg-fill-41{0%{fill:transparent}100%{fill:rgb(51,141,174)}}@keyframes animate-svg-fill-41{0%{fill:transparent}100%{fill:rgb(51,141,174)}}.svg-elem-41{-webkit-animation:animate-svg-fill-41 0.2s ease-in-out 4.4s both;animation:animate-svg-fill-41 0.2s ease-in-out 4.4s both}@-webkit-keyframes animate-svg-fill-42{0%{fill:transparent}100%{fill:rgb(145,197,214)}}@keyframes animate-svg-fill-42{0%{fill:transparent}100%{fill:rgb(145,197,214)}}.svg-elem-42{-webkit-animation:animate-svg-fill-42 0.2s ease-in-out 4.500000000000001s both;animation:animate-svg-fill-42 0.2s ease-in-out 4.500000000000001s both}@-webkit-keyframes animate-svg-fill-43{0%{fill:transparent}100%{fill:rgb(18,128,165)}}@keyframes animate-svg-fill-43{0%{fill:transparent}100%{fill:rgb(18,128,165)}}.svg-elem-43{-webkit-animation:animate-svg-fill-43 0.2s ease-in-out 4.6000000000000005s both;animation:animate-svg-fill-43 0.2s ease-in-out 4.6000000000000005s both}@-webkit-keyframes animate-svg-fill-44{0%{fill:transparent}100%{fill:rgb(109,109,109)}}@keyframes animate-svg-fill-44{0%{fill:transparent}100%{fill:rgb(109,109,109)}}.svg-elem-44{-webkit-animation:animate-svg-fill-44 0.2s ease-in-out 4.7s both;animation:animate-svg-fill-44 0.2s ease-in-out 4.7s both}@-webkit-keyframes animate-svg-fill-45{0%{fill:transparent}100%{fill:rgb(41,137,172)}}@keyframes animate-svg-fill-45{0%{fill:transparent}100%{fill:rgb(41,137,172)}}.svg-elem-45{-webkit-animation:animate-svg-fill-45 0.2s ease-in-out 4.800000000000001s both;animation:animate-svg-fill-45 0.2s ease-in-out 4.800000000000001s both}@-webkit-keyframes animate-svg-fill-46{0%{fill:transparent}100%{fill:rgb(27,130,167)}}@keyframes animate-svg-fill-46{0%{fill:transparent}100%{fill:rgb(27,130,167)}}.svg-elem-46{-webkit-animation:animate-svg-fill-46 0.2s ease-in-out 4.9s both;animation:animate-svg-fill-46 0.2s ease-in-out 4.9s both}</style>
   <g>
    <path class="svg-elem-1" d="m507.5,51.5c0.19,4.42 -0.31,8.75 -1.5,13c-1.83,4.17 -3.67,8.33 -5.5,12.5c1.89,1.9 4.22,3.07 7,3.5c2.59,-4.28 6.26,-6.94 11,-8c7.81,-4.31 15.81,-4.81 24,-1.5c3.76,3.35 6.09,7.52 7,12.5c5.69,0.71 11.35,1.37 17,2c0.84,-4.23 1.84,-8.73 3,-13.5c-3.6,-20.4 4.73,-32.73 25,-37c10.71,-0.47 16.71,4.7 18,15.5c2.24,6.74 0.91,12.57 -4,17.5c1.31,7.09 3.31,13.92 6,20.5c2.31,0.26 4.31,0.26 6,0c2.17,-2 4.5,-3.83 7,-5.5c16.3,-3.66 32.63,-7.16 49,-10.5c10.61,0.94 16.61,6.61 18,17c0.99,4.27 1.66,8.61 2,13c2.63,-0.59 5.29,-0.92 8,-1c8.89,2.23 13.89,7.89 15,17c2.38,11.38 4.38,22.88 6,34.5c-0.41,9.07 -4.75,15.4 -13,19c1.4,3.47 3.07,6.81 5,10c3.18,1.46 6.51,2.29 10,2.5c4.75,3.43 7.41,8.09 8,14c-1.71,11.65 -3.54,23.31 -5.5,35c-1.82,8.49 -6.99,13.66 -15.5,15.5c-7,0.67 -14,0.67 -21,0c-5.22,-1.91 -10.55,-2.91 -16,-3c-7.41,5.75 -15.08,11.08 -23,16c3.52,5.01 7.18,9.84 11,14.5c0.94,1.55 1.61,3.22 2,5c1.63,8.81 -0.2,16.81 -5.5,24c-31.38,34.22 -68.88,43.39 -112.5,27.5c-8.53,-4.86 -16.19,-10.86 -23,-18c-12.94,-1.87 -25.94,-2.54 -39,-2c-1.59,1.05 -3.09,2.21 -4.5,3.5c1.74,28.93 -11.26,39.26 -39,31c-3.75,2.79 -7.91,4.96 -12.5,6.5c-7.59,2.21 -14.92,1.71 -22,-1.5c-4.45,-2.89 -7.45,-6.89 -9,-12c-0.06,-4.25 -1.06,-8.25 -3,-12c-3.39,-1.69 -6.72,-3.36 -10,-5c-0.79,-0.9 -1.79,-1.57 -3,-2c-1.59,-2.77 -3.42,-5.44 -5.5,-8c-0.57,-2.67 -1.07,-5.33 -1.5,-8c-6.02,-0.26 -12.02,-0.43 -18,-0.5c-3.78,4.15 -8.45,6.82 -14,8c-15.45,4.49 -31.12,5.49 -47,3c-6.47,-1.49 -12.63,-3.66 -18.5,-6.5c-0.56,2.65 -1.06,5.32 -1.5,8c7.32,22.69 -0.51,37.02 -23.5,43c-2.1,-0.79 -4.27,-1.12 -6.5,-1c-6.78,-5.21 -10.78,-12.21 -12,-21c0.69,-3.44 1.69,-6.77 3,-10c-0.35,-1.35 -0.68,-2.68 -1,-4c-1.28,-4.56 -3.11,-8.9 -5.5,-13c-2.23,-1.61 -4.73,-2.28 -7.5,-2c-1.29,-0.99 -2.63,-1.99 -4,-3c-2.76,-4.35 -4.93,-9.01 -6.5,-14c-1.65,-9.03 1.85,-15.2 10.5,-18.5c5.22,-1.1 10.39,-2.26 15.5,-3.5c-1.66,-5.95 -3.32,-11.95 -5,-18c-9.58,4.54 -19.08,9.2 -28.5,14c5.59,5.87 7.43,12.87 5.5,21c-0.47,1.75 -1.14,3.41 -2,5c-8.91,6.54 -18.07,12.7 -27.5,18.5c-6,3.42 -11.84,3.25 -17.5,-0.5c-0.63,9.3 -5.47,14.8 -14.5,16.5c-5.74,0.79 -11.4,0.46 -17,-1c-3.49,-2.31 -5.49,-5.47 -6,-9.5c-10.18,-2.76 -20.18,-6.09 -30,-10c-7.5,-3.99 -11.17,-10.32 -11,-19c0.82,-2.3 1.49,-4.63 2,-7c5.56,-5.46 11.9,-9.96 19,-13.5c-13.67,-1.13 -27.34,-2.3 -41,-3.5c-7.31,-4.53 -10.64,-11.2 -10,-20c2.97,-54.66 5.8,-109.32 8.5,-164c-0.71,-13.62 5.62,-21.62 19,-24c10.63,0.97 21.3,1.63 32,2c11.36,-1.07 22.69,-2.4 34,-4c37.77,1.7 66.1,18.7 85,51c2,-0.67 4,-1.33 6,-2c0.7,-6.49 2.03,-12.82 4,-19c3.32,-4.58 7.82,-6.91 13.5,-7c9.15,1.39 17.98,3.73 26.5,7c4.36,-1.82 8.86,-2.32 13.5,-1.5c5.7,1.21 11.36,2.54 17,4c3.08,1.25 5.75,3.08 8,5.5c1.57,-0.81 3.24,-1.14 5,-1c-0.66,-3.99 -1.33,-7.99 -2,-12c-0.02,-6.13 2.65,-10.63 8,-13.5c19.63,-4.99 39.3,-9.83 59,-14.5c11.85,1.19 18.85,7.52 21,19c4.8,-0.37 9.46,-1.37 14,-3c-6.99,-8.88 -6.65,-17.38 1,-25.5c8.61,-3.3 16.61,-7.64 24,-13c6.59,-2.35 12.26,-1.02 17,4c6,0.67 12,1.33 18,2c10.51,1.34 16.51,7.17 18,17.5z" fill="#fdfdfe" opacity="0.99"/>
   </g>
   <g>
    <path class="svg-elem-2" d="m459.5,39.5c2.31,0.89 3.98,2.55 5,5c1.17,0.33 2.33,0.67 3.5,1c7.56,0.48 15.06,1.32 22.5,2.5c3.18,1.02 4.52,3.19 4,6.5c-0.91,7.49 -3.74,14.15 -8.5,20c-9.3,11.22 -20.47,19.88 -33.5,26c-2.98,-2.48 -5.82,-5.15 -8.5,-8c-0.67,-1 -0.67,-2 0,-3c11.31,-7.48 20.81,-16.81 28.5,-28c-3.45,-1.89 -7.12,-2.39 -11,-1.5c-5.57,3.2 -11.4,4.7 -17.5,4.5c-2.17,-3.67 -4.33,-7.33 -6.5,-11c8.01,-3.67 15.34,-8.33 22,-14z" fill="#64dafb"/>
   </g>
   <g>
    <path class="svg-elem-3" d="m595.5,47.5c1,0 2,0 3,0c0.96,3.6 1.63,7.27 2,11c-2.4,-0.11 -4.24,0.89 -5.5,3c0.32,5.19 1.16,10.35 2.5,15.5c-0.04,1.76 -0.38,3.43 -1,5c1.5,1.5 3,3 4.5,4.5c0.83,5.49 2.99,10.33 6.5,14.5c2.16,0.08 4.16,0.25 6,0.5c1.77,2.81 2.61,5.81 2.5,9c-7.79,3.54 -14.79,2.54 -21,-3c-2.79,-5.05 -4.79,-10.38 -6,-16c-2.08,-0.83 -4.25,-0.83 -6.5,0c-0.07,-2.81 -0.74,-5.48 -2,-8c2.18,-1.61 3.52,-3.78 4,-6.5c-6.75,-13.97 -3.08,-23.8 11,-29.5z" fill="#1881a6"/>
   </g>
   <g>
    <path class="svg-elem-4" d="m612.5,50.5c2.58,1.07 4.74,2.73 6.5,5c6.32,9.6 6.48,19.1 0.5,28.5c0.65,1.44 0.98,2.94 1,4.5c-1.69,0.26 -3.69,0.26 -6,0c-2.69,-6.58 -4.69,-13.41 -6,-20.5c4.91,-4.93 6.24,-10.76 4,-17.5z" fill="#6c6c6c" opacity="0.94"/>
   </g>
   <g>
    <path class="svg-elem-5" d="m507.5,51.5c7.99,4.58 11.66,11.58 11,21c-4.74,1.06 -8.41,3.72 -11,8c-2.78,-0.43 -5.11,-1.6 -7,-3.5c1.83,-4.17 3.67,-8.33 5.5,-12.5c1.19,-4.25 1.69,-8.58 1.5,-13z" fill="#6e6e6e" opacity="0.95"/>
   </g>
   <g>
    <path class="svg-elem-6" d="m389.5,64.5c6.8,-1.78 11.3,0.55 13.5,7c1.37,8.54 -0.13,16.54 -4.5,24c-4.63,1.16 -9.3,1.33 -14,0.5c-0.79,-3.41 -1.29,-6.91 -1.5,-10.5c-0.73,-0.56 -1.56,-0.89 -2.5,-1c-11.17,2.73 -22.34,5.4 -33.5,8c-1.71,0.06 -3.04,-0.61 -4,-2c-0.51,-4.08 -1.35,-8.08 -2.5,-12c0.21,-0.59 0.54,-1.09 1,-1.5c16.08,-4.19 32.08,-8.35 48,-12.5z" fill="#1681a6"/>
   </g>
   <g>
    <path class="svg-elem-7" d="m138.5,67.5c25.49,-2.13 48.16,4.7 68,20.5c22.53,22.74 27.36,48.9 14.5,78.5c-2.58,5.08 -5.75,9.74 -9.5,14c9.4,17.69 16.73,36.19 22,55.5c-0.14,2.15 -1.14,3.82 -3,5c-10.46,4.73 -20.79,9.73 -31,15c-4.53,2.41 -8.36,1.58 -11.5,-2.5c-10.96,-17.08 -21.79,-34.25 -32.5,-51.5c-9.15,-0.13 -18.15,-1.3 -27,-3.5c-0.6,17.34 -1.43,34.68 -2.5,52c-0.37,0.92 -0.87,1.75 -1.5,2.5c-17.04,0.43 -34.04,-0.24 -51,-2c-0.5,-0.5 -1,-1 -1.5,-1.5c1.9,-59.02 4.57,-118.02 8,-177c1.82,-2.45 4.32,-3.45 7.5,-3c11.84,0.63 23.67,1.3 35.5,2c5.34,-1.13 10.51,-2.46 15.5,-4z" fill="#0b7ea4"/>
   </g>
   <g>
    <path class="svg-elem-8" d="m531.5,81.5c2.41,-0.36 3.91,0.64 4.5,3c2,6.67 4,13.33 6,20c0.52,-2.53 1.68,-4.7 3.5,-6.5c7.33,-0.98 14.49,-0.48 21.5,1.5c-1.14,5.25 -2.31,10.58 -3.5,16c-6.36,-0.84 -12.69,-1.84 -19,-3c2.74,9.22 5.07,18.55 7,28c-4.71,1.13 -9.38,2.46 -14,4c-6.49,-18.97 -12.49,-38.14 -18,-57.5c3.72,-2.51 7.72,-4.35 12,-5.5z" fill="#1580a5"/>
   </g>
   <g>
    <path class="svg-elem-9" d="m671.5,86.5c2.69,-0.16 5.35,0 8,0.5c1.2,0.9 2.03,2.07 2.5,3.5c1.66,8.99 3.16,17.99 4.5,27c5.01,-0.87 10.01,-1.87 15,-3c2.6,0.77 4.44,2.44 5.5,5c2.65,12.24 4.32,24.57 5,37c-1.17,1.39 -2.67,2.23 -4.5,2.5c-4.12,0.32 -8.12,1.16 -12,2.5c2.23,11.88 7.23,22.38 15,31.5c3.14,1.73 6.47,2.89 10,3.5c0.43,12.86 -1.07,25.53 -4.5,38c-22.97,5.79 -40.97,-1.21 -54,-21c-7.1,-12.97 -12.43,-26.63 -16,-41c-5.53,-0.6 -11.03,0.06 -16.5,2c-1.88,-0.38 -3.38,-1.38 -4.5,-3c-2.66,-12.95 -4.66,-25.95 -6,-39c1.17,-1.39 2.67,-2.23 4.5,-2.5c3.67,-0.55 7.34,-1.05 11,-1.5c-1.89,-10.61 -3.06,-21.27 -3.5,-32c1.65,-1.22 3.48,-2.05 5.5,-2.5c11.87,-2.2 23.53,-4.7 35,-7.5z" fill="#0d7ea4"/>
   </g>
   <g>
    <path class="svg-elem-10" d="m257.5,90.5c6.79,0.22 13.45,1.22 20,3c-0.28,11.13 -2.78,21.79 -7.5,32c-1.06,0.6 -2.23,0.93 -3.5,1c-4.53,-1.26 -9.03,-2.59 -13.5,-4c0.73,-10.76 2.23,-21.43 4.5,-32z" fill="#65dafb"/>
   </g>
   <g>
    <path class="svg-elem-11" d="m694.5,89.5c5.15,2.49 8.49,6.49 10,12c-2.71,0.08 -5.37,0.41 -8,1c-0.34,-4.39 -1.01,-8.73 -2,-13z" fill="#6f6f6f" opacity="0.87"/>
   </g>
   <g>
    <path class="svg-elem-12" d="m293.5,94.5c6.46,0.83 12.8,2.16 19,4c-0.37,24.29 -9.04,45.13 -26,62.5c-2.6,2.21 -5.43,4.05 -8.5,5.5c-4.51,-2.83 -8.68,-5.99 -12.5,-9.5c7.38,-7.39 13.21,-15.89 17.5,-25.5c4.57,-12.14 8.07,-24.47 10.5,-37z" fill="#64dafb"/>
   </g>
   <g>
    <path class="svg-elem-13" d="m368.5,96.5c4.01,-0.17 8.01,0 12,0.5c2.42,12.52 0.42,24.36 -6,35.5c-4.67,1 -9.33,0.84 -14,-0.5c-0.6,-1.06 -0.93,-2.23 -1,-3.5c1.55,-9.93 2.38,-19.93 2.5,-30c2.28,-0.62 4.44,-1.28 6.5,-2z" fill="#107fa4"/>
   </g>
   <g>
    <path class="svg-elem-14" d="m486.5,111.5c4.68,-0.17 9.35,0 14,0.5c0.63,0.75 1.13,1.58 1.5,2.5c0.19,20.53 2.19,40.86 6,61c1.96,8.46 7.13,13.79 15.5,16c0.33,0.67 0.67,1.33 1,2c-2.88,11.54 -6.38,22.88 -10.5,34c-11.33,2.01 -22,0.01 -32,-6c-27.57,19.26 -55.41,19.76 -83.5,1.5c-21.83,-19.81 -27.67,-43.65 -17.5,-71.5c10.87,-22.52 28.87,-34.18 54,-35c4.68,0.16 9.35,0.49 14,1c2.89,0.24 5.39,-0.59 7.5,-2.5c10.16,-1.06 20.16,-2.23 30,-3.5z" fill="#0c7ea4"/>
   </g>
   <g>
    <path class="svg-elem-15" d="m134.5,113.5c10.49,-1.2 20.15,0.96 29,6.5c11.17,12.96 10.5,25.29 -2,37c-9.54,4.41 -19.21,4.58 -29,0.5c-0.33,-3.67 -0.67,-7.33 -1,-11c0.02,-11.26 1.02,-22.26 3,-33z" fill="#fcfdfe"/>
   </g>
   <g>
    <path class="svg-elem-16" d="m719.5,118.5c3.6,1.76 6.43,4.43 8.5,8c3.21,14.09 6.04,28.25 8.5,42.5c-0.78,6.58 -3.78,11.75 -9,15.5c-3.49,-0.21 -6.82,-1.04 -10,-2.5c-1.93,-3.19 -3.6,-6.53 -5,-10c8.25,-3.6 12.59,-9.93 13,-19c-1.62,-11.62 -3.62,-23.12 -6,-34.5z" fill="#6c6c6c" opacity="0.94"/>
   </g>
   <g>
    <path class="svg-elem-17" d="m436.5,153.5c4.01,-0.17 8.01,0 12,0.5c2.53,0.52 4.7,1.68 6.5,3.5c1.52,11.13 3.69,22.13 6.5,33c-0.51,1.59 -1.51,2.75 -3,3.5c-19.94,8.04 -31.6,1.54 -35,-19.5c0.73,-9.36 5.06,-16.36 13,-21z" fill="#fbfcfd"/>
   </g>
   <g>
    <path class="svg-elem-18" d="m312.5,172.5c29.94,-1.77 49.78,11.56 59.5,40c1.99,8.84 0.16,16.67 -5.5,23.5c-12.57,8.95 -26.24,15.79 -41,20.5c-1.87,0.11 -3.37,-0.56 -4.5,-2c-4.63,-7.1 -9.13,-14.27 -13.5,-21.5c3.04,-3.37 6.71,-6.04 11,-8c5.31,-4.14 4.64,-7.48 -2,-10c-17.1,-0.9 -24.6,7.27 -22.5,24.5c6.21,19.2 19.38,27.36 39.5,24.5c4.89,-0.93 9.73,-2.1 14.5,-3.5c2.41,0.2 4.41,1.2 6,3c0.58,10.83 -0.42,21.49 -3,32c-3.91,3.31 -8.41,5.47 -13.5,6.5c-33.94,8.7 -60.77,-1.14 -80.5,-29.5c-18.69,-43.45 -6.52,-74.95 36.5,-94.5c6.33,-2.33 12.66,-4.16 19,-5.5z" fill="#62dafb"/>
   </g>
   <g>
    <path class="svg-elem-19" d="m586.5,194.5c13.83,-1.37 27.16,0.46 40,5.5c1.95,1.44 3.28,3.27 4,5.5c-2.03,10.45 -4.53,20.78 -7.5,31c-0.83,0.83 -1.67,1.67 -2.5,2.5c-4.07,-0.34 -8.07,-1.34 -12,-3c-10.58,-2.25 -20.08,-0.09 -28.5,6.5c-6.93,10.69 -7.26,21.69 -1,33c8.07,8.95 17.91,11.45 29.5,7.5c9.72,-3.73 17.72,-9.73 24,-18c2.96,-2.05 5.79,-1.89 8.5,0.5c4.33,6 8.67,12 13,18c2.34,5.63 1.34,10.63 -3,15c-25.32,27.62 -55.82,35.79 -91.5,24.5c-25.98,-12.1 -38.64,-32.6 -38,-61.5c0.32,-25.48 11.65,-44.32 34,-56.5c9.94,-5.03 20.27,-8.53 31,-10.5z" fill="#62dafb"/>
   </g>
   <g>
    <path class="svg-elem-20" d="m735.5,198.5c6.51,3.52 9.85,9.02 10,16.5c-1.52,12.95 -3.68,25.78 -6.5,38.5c-5.05,8.69 -12.71,12.69 -23,12c-9.1,-0.32 -17.93,-1.99 -26.5,-5c-7.72,5.85 -15.72,11.19 -24,16c-3.82,-4.66 -7.48,-9.49 -11,-14.5c7.92,-4.92 15.59,-10.25 23,-16c5.45,0.09 10.78,1.09 16,3c7,0.67 14,0.67 21,0c8.51,-1.84 13.68,-7.01 15.5,-15.5c1.96,-11.69 3.79,-23.35 5.5,-35z" fill="#6c6c6c" opacity="0.96"/>
   </g>
   <g>
    <path class="svg-elem-21" d="m462.5,269.5c0,1.33 0,2.67 0,4c-1,0 -2,0 -3,0c-4.01,0.17 -8.01,0 -12,-0.5c-3.15,-3.07 -6.48,-5.9 -10,-8.5c-1.02,-0.5 -1.19,-1.17 -0.5,-2c4.78,-5.14 10.61,-7.65 17.5,-7.5c5.65,3.14 8.32,7.97 8,14.5z" fill="#1681a6"/>
   </g>
   <g>
    <path class="svg-elem-22" d="m157.5,256.5c1.33,0 2.67,0 4,0c-2.33,18.81 -5.5,37.47 -9.5,56c-3.58,1.79 -7.42,2.46 -11.5,2c3.07,-19.02 6.4,-38.02 10,-57c2.56,0.3 4.89,-0.03 7,-1z" fill="#1c82a7"/>
   </g>
   <g>
    <path class="svg-elem-23" d="m410.5,259.5c6.59,-0.02 12.59,1.81 18,5.5c-3.24,3.82 -6.24,7.82 -9,12c-4.65,1.61 -9.32,3.11 -14,4.5c-0.92,-4.97 -1.09,-9.97 -0.5,-15c0.97,-3.12 2.8,-5.45 5.5,-7z" fill="#1280a5"/>
   </g>
   <g>
    <path class="svg-elem-24" d="m67.5,263.5c13.66,1.2 27.33,2.37 41,3.5c-7.1,3.54 -13.44,8.04 -19,13.5c-12.05,0.27 -19.38,-5.39 -22,-17z" fill="#6e6e6e" opacity="0.96"/>
   </g>
   <g>
    <path class="svg-elem-25" d="m170.5,266.5c9.38,3.4 18.71,6.9 28,10.5c2.77,3.61 2.44,6.94 -1,10c-7.17,4.08 -14.17,8.42 -21,13c-0.95,0.48 -1.95,0.65 -3,0.5c-0.16,-3.68 0,-7.35 0.5,-11c3.42,-2.29 6.92,-4.46 10.5,-6.5c-4.15,-1.83 -8.32,-3.66 -12.5,-5.5c-0.55,-3.67 -1.05,-7.34 -1.5,-11z" fill="#1781a6"/>
   </g>
   <g>
    <path class="svg-elem-26" d="m432.5,267.5c2.79,1.61 5.45,3.45 8,5.5c-4.08,0.51 -8.08,1.35 -12,2.5c-0.33,-0.33 -0.67,-0.67 -1,-1c1.92,-2.19 3.59,-4.52 5,-7z" fill="#1d84a8"/>
   </g>
   <g>
    <path class="svg-elem-27" d="m126.5,270.5c1.54,0.73 2.38,2.06 2.5,4c0.81,2.4 0.65,4.74 -0.5,7c-3.67,2.17 -7.33,4.33 -11,6.5c4.64,1.65 9.14,3.49 13.5,5.5c0.82,3.71 0.66,7.38 -0.5,11c-9,-3.5 -18,-7 -27,-10.5c-2.56,-3.07 -2.56,-6.07 0,-9c7.73,-4.86 15.4,-9.69 23,-14.5z" fill="#1a82a7"/>
   </g>
   <g>
    <path class="svg-elem-28" d="m462.5,269.5c0.95,1.42 1.28,3.08 1,5c-1.6,0.27 -2.93,-0.07 -4,-1c1,0 2,0 3,0c0,-1.33 0,-2.67 0,-4z" fill="#b0d5e1"/>
   </g>
   <g>
    <path class="svg-elem-29" d="m435.5,278.5c3.68,-0.17 7.35,0 11,0.5c4.82,5.32 9.16,10.99 13,17c-2.25,6.67 -4.92,13.17 -8,19.5c-7.44,2.72 -15.1,3.89 -23,3.5c-5.55,-5.2 -9.88,-11.2 -13,-18c1.66,-7.32 4.66,-13.99 9,-20c3.85,-0.63 7.51,-1.47 11,-2.5z" fill="#1681a6"/>
   </g>
   <g>
    <path class="svg-elem-30" d="m453.5,279.5c2.84,-1.05 5.84,-1.05 9,0c-0.3,3.02 -0.8,6.02 -1.5,9c-2.36,-3.19 -4.86,-6.19 -7.5,-9z" fill="#1b84a8"/>
   </g>
   <g>
    <path class="svg-elem-31" d="m467.5,280.5c20.87,6.24 22.37,15.57 4.5,28c-2.11,-4.71 -4.61,-9.21 -7.5,-13.5c1.51,-4.7 2.51,-9.54 3,-14.5z" fill="#1982a6"/>
   </g>
   <g>
    <path class="svg-elem-32" d="m667.5,281.5c13.61,12.81 14.78,26.48 3.5,41c-32.99,34.87 -71.49,42.71 -115.5,23.5c-7.12,-4.62 -13.79,-9.79 -20,-15.5c-12.96,-1.59 -25.95,-2.09 -39,-1.5c-1.17,1.17 -2.33,2.33 -3.5,3.5c1.18,7.9 0.18,15.57 -3,23c-5.7,8.13 -13.53,11.63 -23.5,10.5c-4.23,-0.93 -8.4,-2.1 -12.5,-3.5c-10.86,9.68 -22.69,11.18 -35.5,4.5c-4.4,-3.97 -7.4,-8.81 -9,-14.5c7.08,3.21 14.41,3.71 22,1.5c4.59,-1.54 8.75,-3.71 12.5,-6.5c27.74,8.26 40.74,-2.07 39,-31c1.41,-1.29 2.91,-2.45 4.5,-3.5c13.06,-0.54 26.06,0.13 39,2c6.81,7.14 14.47,13.14 23,18c43.62,15.89 81.12,6.72 112.5,-27.5c5.3,-7.19 7.13,-15.19 5.5,-24z" fill="#6c6c6c" opacity="0.96"/>
   </g>
   <g>
    <path class="svg-elem-33" d="m233.5,284.5c7.09,-1.39 12.93,0.61 17.5,6c1.94,3.55 3.61,7.21 5,11c0.74,1.07 1.74,1.74 3,2c1.58,-1.05 3.08,-1.05 4.5,0c1.75,2.47 2.58,5.14 2.5,8c-1.76,0.62 -2.92,1.79 -3.5,3.5c1.97,4.11 3.8,8.27 5.5,12.5c1.32,11.47 -3.52,17.8 -14.5,19c-0.9,-2.54 -1.9,-5.04 -3,-7.5c1.1,-1.82 2.6,-3.32 4.5,-4.5c-0.76,-6.06 -2.59,-11.89 -5.5,-17.5c0.45,-1.29 1.12,-2.45 2,-3.5c-2.25,-0.75 -4.08,-2.08 -5.5,-4c-1.89,-4.21 -4.06,-8.21 -6.5,-12c-2.67,-1.02 -5.34,-1.18 -8,-0.5c-2.2,-2.88 -3.37,-6.05 -3.5,-9.5c1.88,-1.11 3.71,-2.11 5.5,-3z" fill="#1681a6"/>
   </g>
   <g>
    <path class="svg-elem-34" d="m413.5,283.5c1.18,-0.22 2.18,0.11 3,1c-1.86,3.59 -3.53,7.26 -5,11c-1.33,-2.66 -2.66,-5.32 -4,-8c2.06,-1.36 4.06,-2.69 6,-4z" fill="#328cae"/>
   </g>
   <g>
    <path class="svg-elem-35" d="m221.5,306.5c-0.01,1.52 -0.68,2.68 -2,3.5c-9.5,6.25 -19.17,12.25 -29,18c-5.01,1.74 -9.84,1.24 -14.5,-1.5c-0.36,6.35 -3.2,11.18 -8.5,14.5c-4.81,1 -9.64,1.83 -14.5,2.5c-3.32,-0.29 -6.49,-1.12 -9.5,-2.5c-2.81,-3.15 -5.47,-6.32 -8,-9.5c-10.11,-3.54 -20.11,-7.37 -30,-11.5c-4.58,-3.33 -6.92,-7.83 -7,-13.5c9.82,3.91 19.82,7.24 30,10c0.51,4.03 2.51,7.19 6,9.5c5.6,1.46 11.26,1.79 17,1c9.03,-1.7 13.87,-7.2 14.5,-16.5c5.66,3.75 11.5,3.92 17.5,0.5c9.43,-5.8 18.59,-11.96 27.5,-18.5c0.86,-1.59 1.53,-3.25 2,-5c1.93,-8.13 0.09,-15.13 -5.5,-21c9.42,-4.8 18.92,-9.46 28.5,-14c1.68,6.05 3.34,12.05 5,18c-5.11,1.24 -10.28,2.4 -15.5,3.5c-8.65,3.3 -12.15,9.47 -10.5,18.5c1.57,4.99 3.74,9.65 6.5,14z" fill="#6d6d6d" opacity="0.96"/>
   </g>
   <g>
    <path class="svg-elem-36" d="m432.5,289.5c8.04,-1.82 13.04,1.18 15,9c-1.68,8.18 -6.68,11.35 -15,9.5c-6.66,-6.33 -6.66,-12.5 0,-18.5z" fill="#fafcfd"/>
   </g>
   <g>
    <path class="svg-elem-37" d="m407.5,314.5c-0.67,0.67 -1.33,1.33 -2,2c-13.85,-1.94 -17.69,-8.94 -11.5,-21c2.69,-2.19 5.53,-4.19 8.5,-6c2.34,4.67 4.67,9.34 7,14c-1.15,3.59 -1.81,7.26 -2,11z" fill="#1581a6"/>
   </g>
   <g>
    <path class="svg-elem-38" d="m462.5,302.5c6.33,7.18 4.67,11.01 -5,11.5c2.16,-3.64 3.82,-7.47 5,-11.5z" fill="#2286a9"/>
   </g>
   <g>
    <path class="svg-elem-39" d="m384.5,321.5c-4.99,-0.72 -9.99,-0.89 -15,-0.5c-2.73,2.39 -5.73,4.39 -9,6c-15.98,5.48 -32.32,7.15 -49,5c-7.13,-1.32 -13.97,-3.49 -20.5,-6.5c-1.2,2.32 -2.04,4.82 -2.5,7.5c7.01,18.66 1.68,32.32 -16,41c-13.15,3.68 -21.15,-1.15 -24,-14.5c2.23,-0.12 4.4,0.21 6.5,1c22.99,-5.98 30.82,-20.31 23.5,-43c0.44,-2.68 0.94,-5.35 1.5,-8c5.87,2.84 12.03,5.01 18.5,6.5c15.88,2.49 31.55,1.49 47,-3c5.55,-1.18 10.22,-3.85 14,-8c5.98,0.07 11.98,0.24 18,0.5c0.43,2.67 0.93,5.33 1.5,8c2.08,2.56 3.91,5.23 5.5,8z" fill="#6c6c6c" opacity="0.96"/>
   </g>
   <g>
    <path class="svg-elem-40" d="m225.5,309.5c2.77,-0.28 5.27,0.39 7.5,2c2.39,4.1 4.22,8.44 5.5,13c-3.64,-0.24 -6.47,-1.9 -8.5,-5c-1.79,-3.24 -3.29,-6.57 -4.5,-10z" fill="#707070" opacity="0.9"/>
   </g>
   <g>
    <path class="svg-elem-41" d="m412.5,309.5c1,-0.09 1.83,0.25 2.5,1c2.05,2.92 4.21,5.76 6.5,8.5c-9.03,2.42 -12.03,-0.74 -9,-9.5z" fill="#338dae"/>
   </g>
   <g>
    <path class="svg-elem-42" d="m407.5,314.5c0.22,1.18 -0.11,2.18 -1,3c-0.61,-0.12 -0.94,-0.46 -1,-1c0.67,-0.67 1.33,-1.33 2,-2z" fill="#91c5d6"/>
   </g>
   <g>
    <path class="svg-elem-43" d="m465.5,316.5c1.32,-0.17 2.49,0.16 3.5,1c3.21,19.73 -4.13,25.07 -22,16c1.92,-4.31 4.42,-8.48 7.5,-12.5c3.95,-1.06 7.62,-2.56 11,-4.5z" fill="#1280a5"/>
   </g>
   <g>
    <path class="svg-elem-44" d="m387.5,323.5c3.28,1.64 6.61,3.31 10,5c1.94,3.75 2.94,7.75 3,12c-7.01,-3.67 -11.35,-9.34 -13,-17z" fill="#6d6d6d" opacity="0.87"/>
   </g>
   <g>
    <path class="svg-elem-45" d="m443.5,322.5c1.37,-0.16 2.71,0.01 4,0.5c-2.05,2.59 -4.21,5.09 -6.5,7.5c-2.3,-1.89 -4.47,-3.89 -6.5,-6c3.14,-0.67 6.14,-1.33 9,-2z" fill="#2989ac"/>
   </g>
   <g>
    <path class="svg-elem-46" d="m411.5,323.5c5.32,0.53 10.66,1.03 16,1.5c3.21,3.38 6.54,6.54 10,9.5c-4.62,5.81 -10.62,8.64 -18,8.5c-6.05,-4.96 -8.72,-11.46 -8,-19.5z" fill="#1b82a7"/>
   </g>
  </symbol>
 </defs>
 <g class="layer">
  <title>Layer 1</title>
  <use id="svg_2" transform="matrix(0.386488, 0, 0, 0.404631, 325.668, 288.845)" x="-1055.44" xlink:href="#svg_1" y="-592.52"/>
 </g>
</svg>