<?xml version="1.0"?>
<svg width="200" height="200" xmlns="http://www.w3.org/2000/svg" xmlns:svg="http://www.w3.org/2000/svg" clip-rule="evenodd" fill-rule="evenodd" preserveAspectRatio="xMidYMid meet" version="1.1">
 <style>/***************************************************
 * Generated by SVG Artista on 9/2/2024, 11:53:13 PM
 * MIT license (https://opensource.org/licenses/MIT)
 * W. https://svgartista.net
 **************************************************/

@-webkit-keyframes animate-svg-fill-1{0%{fill:transparent}100%{fill:rgb(253,253,254)}}@keyframes animate-svg-fill-1{0%{fill:transparent}100%{fill:rgb(253,253,254)}}.svg-elem-1{-webkit-animation:animate-svg-fill-1 0.2s ease-in-out 0.4s both;animation:animate-svg-fill-1 0.2s ease-in-out 0.4s both}@-webkit-keyframes animate-svg-fill-2{0%{fill:transparent}100%{fill:rgb(100,218,251)}}@keyframes animate-svg-fill-2{0%{fill:transparent}100%{fill:rgb(100,218,251)}}.svg-elem-2{-webkit-animation:animate-svg-fill-2 0.2s ease-in-out 0.5s both;animation:animate-svg-fill-2 0.2s ease-in-out 0.5s both}@-webkit-keyframes animate-svg-fill-3{0%{fill:transparent}100%{fill:rgb(24,129,166)}}@keyframes animate-svg-fill-3{0%{fill:transparent}100%{fill:rgb(24,129,166)}}.svg-elem-3{-webkit-animation:animate-svg-fill-3 0.2s ease-in-out 0.6000000000000001s both;animation:animate-svg-fill-3 0.2s ease-in-out 0.6000000000000001s both}@-webkit-keyframes animate-svg-fill-4{0%{fill:transparent}100%{fill:rgb(108,108,108)}}@keyframes animate-svg-fill-4{0%{fill:transparent}100%{fill:rgb(108,108,108)}}.svg-elem-4{-webkit-animation:animate-svg-fill-4 0.2s ease-in-out 0.7000000000000001s both;animation:animate-svg-fill-4 0.2s ease-in-out 0.7000000000000001s both}@-webkit-keyframes animate-svg-fill-5{0%{fill:transparent}100%{fill:rgb(110,110,110)}}@keyframes animate-svg-fill-5{0%{fill:transparent}100%{fill:rgb(110,110,110)}}.svg-elem-5{-webkit-animation:animate-svg-fill-5 0.2s ease-in-out 0.8s both;animation:animate-svg-fill-5 0.2s ease-in-out 0.8s both}@-webkit-keyframes animate-svg-fill-6{0%{fill:transparent}100%{fill:rgb(22,129,166)}}@keyframes animate-svg-fill-6{0%{fill:transparent}100%{fill:rgb(22,129,166)}}.svg-elem-6{-webkit-animation:animate-svg-fill-6 0.2s ease-in-out 0.9s both;animation:animate-svg-fill-6 0.2s ease-in-out 0.9s both}@-webkit-keyframes animate-svg-fill-7{0%{fill:transparent}100%{fill:rgb(11,126,164)}}@keyframes animate-svg-fill-7{0%{fill:transparent}100%{fill:rgb(11,126,164)}}.svg-elem-7{-webkit-animation:animate-svg-fill-7 0.2s ease-in-out 1s both;animation:animate-svg-fill-7 0.2s ease-in-out 1s both}@-webkit-keyframes animate-svg-fill-8{0%{fill:transparent}100%{fill:rgb(21,128,165)}}@keyframes animate-svg-fill-8{0%{fill:transparent}100%{fill:rgb(21,128,165)}}.svg-elem-8{-webkit-animation:animate-svg-fill-8 0.2s ease-in-out 1.1s both;animation:animate-svg-fill-8 0.2s ease-in-out 1.1s both}@-webkit-keyframes animate-svg-fill-9{0%{fill:transparent}100%{fill:rgb(13,126,164)}}@keyframes animate-svg-fill-9{0%{fill:transparent}100%{fill:rgb(13,126,164)}}.svg-elem-9{-webkit-animation:animate-svg-fill-9 0.2s ease-in-out 1.2000000000000002s both;animation:animate-svg-fill-9 0.2s ease-in-out 1.2000000000000002s both}@-webkit-keyframes animate-svg-fill-10{0%{fill:transparent}100%{fill:rgb(101,218,251)}}@keyframes animate-svg-fill-10{0%{fill:transparent}100%{fill:rgb(101,218,251)}}.svg-elem-10{-webkit-animation:animate-svg-fill-10 0.2s ease-in-out 1.3s both;animation:animate-svg-fill-10 0.2s ease-in-out 1.3s both}@-webkit-keyframes animate-svg-fill-11{0%{fill:transparent}100%{fill:rgb(111,111,111)}}@keyframes animate-svg-fill-11{0%{fill:transparent}100%{fill:rgb(111,111,111)}}.svg-elem-11{-webkit-animation:animate-svg-fill-11 0.2s ease-in-out 1.4s both;animation:animate-svg-fill-11 0.2s ease-in-out 1.4s both}@-webkit-keyframes animate-svg-fill-12{0%{fill:transparent}100%{fill:rgb(100,218,251)}}@keyframes animate-svg-fill-12{0%{fill:transparent}100%{fill:rgb(100,218,251)}}.svg-elem-12{-webkit-animation:animate-svg-fill-12 0.2s ease-in-out 1.5s both;animation:animate-svg-fill-12 0.2s ease-in-out 1.5s both}@-webkit-keyframes animate-svg-fill-13{0%{fill:transparent}100%{fill:rgb(16,127,164)}}@keyframes animate-svg-fill-13{0%{fill:transparent}100%{fill:rgb(16,127,164)}}.svg-elem-13{-webkit-animation:animate-svg-fill-13 0.2s ease-in-out 1.6s both;animation:animate-svg-fill-13 0.2s ease-in-out 1.6s both}@-webkit-keyframes animate-svg-fill-14{0%{fill:transparent}100%{fill:rgb(12,126,164)}}@keyframes animate-svg-fill-14{0%{fill:transparent}100%{fill:rgb(12,126,164)}}.svg-elem-14{-webkit-animation:animate-svg-fill-14 0.2s ease-in-out 1.7000000000000002s both;animation:animate-svg-fill-14 0.2s ease-in-out 1.7000000000000002s both}@-webkit-keyframes animate-svg-fill-15{0%{fill:transparent}100%{fill:rgb(252,253,254)}}@keyframes animate-svg-fill-15{0%{fill:transparent}100%{fill:rgb(252,253,254)}}.svg-elem-15{-webkit-animation:animate-svg-fill-15 0.2s ease-in-out 1.8000000000000003s both;animation:animate-svg-fill-15 0.2s ease-in-out 1.8000000000000003s both}@-webkit-keyframes animate-svg-fill-16{0%{fill:transparent}100%{fill:rgb(108,108,108)}}@keyframes animate-svg-fill-16{0%{fill:transparent}100%{fill:rgb(108,108,108)}}.svg-elem-16{-webkit-animation:animate-svg-fill-16 0.2s ease-in-out 1.9s both;animation:animate-svg-fill-16 0.2s ease-in-out 1.9s both}@-webkit-keyframes animate-svg-fill-17{0%{fill:transparent}100%{fill:rgb(251,252,253)}}@keyframes animate-svg-fill-17{0%{fill:transparent}100%{fill:rgb(251,252,253)}}.svg-elem-17{-webkit-animation:animate-svg-fill-17 0.2s ease-in-out 2s both;animation:animate-svg-fill-17 0.2s ease-in-out 2s both}@-webkit-keyframes animate-svg-fill-18{0%{fill:transparent}100%{fill:rgb(98,218,251)}}@keyframes animate-svg-fill-18{0%{fill:transparent}100%{fill:rgb(98,218,251)}}.svg-elem-18{-webkit-animation:animate-svg-fill-18 0.2s ease-in-out 2.1s both;animation:animate-svg-fill-18 0.2s ease-in-out 2.1s both}@-webkit-keyframes animate-svg-fill-19{0%{fill:transparent}100%{fill:rgb(98,218,251)}}@keyframes animate-svg-fill-19{0%{fill:transparent}100%{fill:rgb(98,218,251)}}.svg-elem-19{-webkit-animation:animate-svg-fill-19 0.2s ease-in-out 2.2s both;animation:animate-svg-fill-19 0.2s ease-in-out 2.2s both}@-webkit-keyframes animate-svg-fill-20{0%{fill:transparent}100%{fill:rgb(108,108,108)}}@keyframes animate-svg-fill-20{0%{fill:transparent}100%{fill:rgb(108,108,108)}}.svg-elem-20{-webkit-animation:animate-svg-fill-20 0.2s ease-in-out 2.3000000000000003s both;animation:animate-svg-fill-20 0.2s ease-in-out 2.3000000000000003s both}@-webkit-keyframes animate-svg-fill-21{0%{fill:transparent}100%{fill:rgb(22,129,166)}}@keyframes animate-svg-fill-21{0%{fill:transparent}100%{fill:rgb(22,129,166)}}.svg-elem-21{-webkit-animation:animate-svg-fill-21 0.2s ease-in-out 2.4s both;animation:animate-svg-fill-21 0.2s ease-in-out 2.4s both}@-webkit-keyframes animate-svg-fill-22{0%{fill:transparent}100%{fill:rgb(28,130,167)}}@keyframes animate-svg-fill-22{0%{fill:transparent}100%{fill:rgb(28,130,167)}}.svg-elem-22{-webkit-animation:animate-svg-fill-22 0.2s ease-in-out 2.5s both;animation:animate-svg-fill-22 0.2s ease-in-out 2.5s both}@-webkit-keyframes animate-svg-fill-23{0%{fill:transparent}100%{fill:rgb(18,128,165)}}@keyframes animate-svg-fill-23{0%{fill:transparent}100%{fill:rgb(18,128,165)}}.svg-elem-23{-webkit-animation:animate-svg-fill-23 0.2s ease-in-out 2.6s both;animation:animate-svg-fill-23 0.2s ease-in-out 2.6s both}@-webkit-keyframes animate-svg-fill-24{0%{fill:transparent}100%{fill:rgb(110,110,110)}}@keyframes animate-svg-fill-24{0%{fill:transparent}100%{fill:rgb(110,110,110)}}.svg-elem-24{-webkit-animation:animate-svg-fill-24 0.2s ease-in-out 2.7s both;animation:animate-svg-fill-24 0.2s ease-in-out 2.7s both}@-webkit-keyframes animate-svg-fill-25{0%{fill:transparent}100%{fill:rgb(23,129,166)}}@keyframes animate-svg-fill-25{0%{fill:transparent}100%{fill:rgb(23,129,166)}}.svg-elem-25{-webkit-animation:animate-svg-fill-25 0.2s ease-in-out 2.8000000000000003s both;animation:animate-svg-fill-25 0.2s ease-in-out 2.8000000000000003s both}@-webkit-keyframes animate-svg-fill-26{0%{fill:transparent}100%{fill:rgb(29,132,168)}}@keyframes animate-svg-fill-26{0%{fill:transparent}100%{fill:rgb(29,132,168)}}.svg-elem-26{-webkit-animation:animate-svg-fill-26 0.2s ease-in-out 2.9s both;animation:animate-svg-fill-26 0.2s ease-in-out 2.9s both}@-webkit-keyframes animate-svg-fill-27{0%{fill:transparent}100%{fill:rgb(26,130,167)}}@keyframes animate-svg-fill-27{0%{fill:transparent}100%{fill:rgb(26,130,167)}}.svg-elem-27{-webkit-animation:animate-svg-fill-27 0.2s ease-in-out 3s both;animation:animate-svg-fill-27 0.2s ease-in-out 3s both}@-webkit-keyframes animate-svg-fill-28{0%{fill:transparent}100%{fill:rgb(176,213,225)}}@keyframes animate-svg-fill-28{0%{fill:transparent}100%{fill:rgb(176,213,225)}}.svg-elem-28{-webkit-animation:animate-svg-fill-28 0.2s ease-in-out 3.1s both;animation:animate-svg-fill-28 0.2s ease-in-out 3.1s both}@-webkit-keyframes animate-svg-fill-29{0%{fill:transparent}100%{fill:rgb(22,129,166)}}@keyframes animate-svg-fill-29{0%{fill:transparent}100%{fill:rgb(22,129,166)}}.svg-elem-29{-webkit-animation:animate-svg-fill-29 0.2s ease-in-out 3.2s both;animation:animate-svg-fill-29 0.2s ease-in-out 3.2s both}@-webkit-keyframes animate-svg-fill-30{0%{fill:transparent}100%{fill:rgb(27,132,168)}}@keyframes animate-svg-fill-30{0%{fill:transparent}100%{fill:rgb(27,132,168)}}.svg-elem-30{-webkit-animation:animate-svg-fill-30 0.2s ease-in-out 3.3000000000000003s both;animation:animate-svg-fill-30 0.2s ease-in-out 3.3000000000000003s both}@-webkit-keyframes animate-svg-fill-31{0%{fill:transparent}100%{fill:rgb(25,130,166)}}@keyframes animate-svg-fill-31{0%{fill:transparent}100%{fill:rgb(25,130,166)}}.svg-elem-31{-webkit-animation:animate-svg-fill-31 0.2s ease-in-out 3.4s both;animation:animate-svg-fill-31 0.2s ease-in-out 3.4s both}@-webkit-keyframes animate-svg-fill-32{0%{fill:transparent}100%{fill:rgb(108,108,108)}}@keyframes animate-svg-fill-32{0%{fill:transparent}100%{fill:rgb(108,108,108)}}.svg-elem-32{-webkit-animation:animate-svg-fill-32 0.2s ease-in-out 3.5s both;animation:animate-svg-fill-32 0.2s ease-in-out 3.5s both}@-webkit-keyframes animate-svg-fill-33{0%{fill:transparent}100%{fill:rgb(22,129,166)}}@keyframes animate-svg-fill-33{0%{fill:transparent}100%{fill:rgb(22,129,166)}}.svg-elem-33{-webkit-animation:animate-svg-fill-33 0.2s ease-in-out 3.6s both;animation:animate-svg-fill-33 0.2s ease-in-out 3.6s both}@-webkit-keyframes animate-svg-fill-34{0%{fill:transparent}100%{fill:rgb(50,140,174)}}@keyframes animate-svg-fill-34{0%{fill:transparent}100%{fill:rgb(50,140,174)}}.svg-elem-34{-webkit-animation:animate-svg-fill-34 0.2s ease-in-out 3.7s both;animation:animate-svg-fill-34 0.2s ease-in-out 3.7s both}@-webkit-keyframes animate-svg-fill-35{0%{fill:transparent}100%{fill:rgb(109,109,109)}}@keyframes animate-svg-fill-35{0%{fill:transparent}100%{fill:rgb(109,109,109)}}.svg-elem-35{-webkit-animation:animate-svg-fill-35 0.2s ease-in-out 3.8000000000000003s both;animation:animate-svg-fill-35 0.2s ease-in-out 3.8000000000000003s both}@-webkit-keyframes animate-svg-fill-36{0%{fill:transparent}100%{fill:rgb(250,252,253)}}@keyframes animate-svg-fill-36{0%{fill:transparent}100%{fill:rgb(250,252,253)}}.svg-elem-36{-webkit-animation:animate-svg-fill-36 0.2s ease-in-out 3.9s both;animation:animate-svg-fill-36 0.2s ease-in-out 3.9s both}@-webkit-keyframes animate-svg-fill-37{0%{fill:transparent}100%{fill:rgb(21,129,166)}}@keyframes animate-svg-fill-37{0%{fill:transparent}100%{fill:rgb(21,129,166)}}.svg-elem-37{-webkit-animation:animate-svg-fill-37 0.2s ease-in-out 4s both;animation:animate-svg-fill-37 0.2s ease-in-out 4s both}@-webkit-keyframes animate-svg-fill-38{0%{fill:transparent}100%{fill:rgb(34,134,169)}}@keyframes animate-svg-fill-38{0%{fill:transparent}100%{fill:rgb(34,134,169)}}.svg-elem-38{-webkit-animation:animate-svg-fill-38 0.2s ease-in-out 4.1000000000000005s both;animation:animate-svg-fill-38 0.2s ease-in-out 4.1000000000000005s both}@-webkit-keyframes animate-svg-fill-39{0%{fill:transparent}100%{fill:rgb(108,108,108)}}@keyframes animate-svg-fill-39{0%{fill:transparent}100%{fill:rgb(108,108,108)}}.svg-elem-39{-webkit-animation:animate-svg-fill-39 0.2s ease-in-out 4.2s both;animation:animate-svg-fill-39 0.2s ease-in-out 4.2s both}@-webkit-keyframes animate-svg-fill-40{0%{fill:transparent}100%{fill:rgb(112,112,112)}}@keyframes animate-svg-fill-40{0%{fill:transparent}100%{fill:rgb(112,112,112)}}.svg-elem-40{-webkit-animation:animate-svg-fill-40 0.2s ease-in-out 4.300000000000001s both;animation:animate-svg-fill-40 0.2s ease-in-out 4.300000000000001s both}@-webkit-keyframes animate-svg-fill-41{0%{fill:transparent}100%{fill:rgb(51,141,174)}}@keyframes animate-svg-fill-41{0%{fill:transparent}100%{fill:rgb(51,141,174)}}.svg-elem-41{-webkit-animation:animate-svg-fill-41 0.2s ease-in-out 4.4s both;animation:animate-svg-fill-41 0.2s ease-in-out 4.4s both}@-webkit-keyframes animate-svg-fill-42{0%{fill:transparent}100%{fill:rgb(145,197,214)}}@keyframes animate-svg-fill-42{0%{fill:transparent}100%{fill:rgb(145,197,214)}}.svg-elem-42{-webkit-animation:animate-svg-fill-42 0.2s ease-in-out 4.500000000000001s both;animation:animate-svg-fill-42 0.2s ease-in-out 4.500000000000001s both}@-webkit-keyframes animate-svg-fill-43{0%{fill:transparent}100%{fill:rgb(18,128,165)}}@keyframes animate-svg-fill-43{0%{fill:transparent}100%{fill:rgb(18,128,165)}}.svg-elem-43{-webkit-animation:animate-svg-fill-43 0.2s ease-in-out 4.6000000000000005s both;animation:animate-svg-fill-43 0.2s ease-in-out 4.6000000000000005s both}@-webkit-keyframes animate-svg-fill-44{0%{fill:transparent}100%{fill:rgb(109,109,109)}}@keyframes animate-svg-fill-44{0%{fill:transparent}100%{fill:rgb(109,109,109)}}.svg-elem-44{-webkit-animation:animate-svg-fill-44 0.2s ease-in-out 4.7s both;animation:animate-svg-fill-44 0.2s ease-in-out 4.7s both}@-webkit-keyframes animate-svg-fill-45{0%{fill:transparent}100%{fill:rgb(41,137,172)}}@keyframes animate-svg-fill-45{0%{fill:transparent}100%{fill:rgb(41,137,172)}}.svg-elem-45{-webkit-animation:animate-svg-fill-45 0.2s ease-in-out 4.800000000000001s both;animation:animate-svg-fill-45 0.2s ease-in-out 4.800000000000001s both}@-webkit-keyframes animate-svg-fill-46{0%{fill:transparent}100%{fill:rgb(27,130,167)}}@keyframes animate-svg-fill-46{0%{fill:transparent}100%{fill:rgb(27,130,167)}}.svg-elem-46{-webkit-animation:animate-svg-fill-46 0.2s ease-in-out 4.9s both;animation:animate-svg-fill-46 0.2s ease-in-out 4.9s both}</style>

 <g class="layer">
  <title>Layer 1</title>
  <g id="svg_93">
   <g id="svg_1">
    <path class="svg-elem-1" d="m130.32,61.35c0.05,1.22 -0.09,2.42 -0.43,3.59c-0.53,1.15 -1.06,2.3 -1.58,3.46c0.54,0.53 1.21,0.85 2.02,0.97c0.75,-1.18 1.8,-1.92 3.17,-2.21c2.25,-1.19 4.55,-1.33 6.91,-0.41c1.08,0.93 1.75,2.08 2.02,3.46c1.64,0.2 3.27,0.38 4.89,0.55c0.24,-1.17 0.53,-2.41 0.86,-3.73c-1.04,-5.64 1.36,-9.05 7.2,-10.23c3.08,-0.13 4.81,1.3 5.18,4.29c0.64,1.86 0.26,3.48 -1.15,4.84c0.38,1.96 0.95,3.85 1.73,5.67c0.66,0.07 1.24,0.07 1.73,0c0.62,-0.55 1.3,-1.06 2.02,-1.52c4.69,-1.01 9.39,-1.98 14.11,-2.9c3.05,0.26 4.78,1.83 5.18,4.7c0.28,1.18 0.48,2.38 0.58,3.59c0.76,-0.16 1.52,-0.25 2.3,-0.28c2.56,0.62 4,2.18 4.32,4.7c0.69,3.15 1.26,6.33 1.73,9.54c-0.12,2.51 -1.37,4.26 -3.74,5.25c0.4,0.96 0.88,1.88 1.44,2.77c0.92,0.4 1.87,0.63 2.88,0.69c1.37,0.95 2.13,2.24 2.3,3.87c-0.49,3.22 -1.02,6.45 -1.58,9.68c-0.52,2.35 -2.01,3.78 -4.46,4.29c-2.02,0.19 -4.03,0.19 -6.05,0c-1.5,-0.53 -3.04,-0.8 -4.61,-0.83c-2.13,1.59 -4.34,3.06 -6.62,4.42c1.01,1.39 2.07,2.72 3.17,4.01c0.27,0.43 0.46,0.89 0.58,1.38c0.47,2.44 -0.06,4.65 -1.58,6.64c-9.03,9.46 -19.83,12 -32.39,7.6c-2.46,-1.34 -4.66,-3 -6.62,-4.98c-3.73,-0.52 -7.47,-0.7 -11.23,-0.55c-0.46,0.29 -0.89,0.61 -1.3,0.97c0.5,8 -3.24,10.86 -11.23,8.57c-1.08,0.77 -2.28,1.37 -3.6,1.8c-2.18,0.61 -4.3,0.47 -6.33,-0.41c-1.28,-0.8 -2.14,-1.91 -2.59,-3.32c-0.02,-1.18 -0.31,-2.28 -0.86,-3.32c-0.98,-0.47 -1.93,-0.93 -2.88,-1.38c-0.23,-0.25 -0.52,-0.43 -0.86,-0.55c-0.46,-0.77 -0.98,-1.5 -1.58,-2.21c-0.16,-0.74 -0.31,-1.47 -0.43,-2.21c-1.73,-0.07 -3.46,-0.12 -5.18,-0.14c-1.09,1.15 -2.43,1.89 -4.03,2.21c-4.45,1.24 -8.96,1.52 -13.53,0.83c-1.86,-0.41 -3.64,-1.01 -5.33,-1.8c-0.16,0.73 -0.31,1.47 -0.43,2.21c2.11,6.27 -0.15,10.24 -6.76,11.89c-0.6,-0.22 -1.23,-0.31 -1.87,-0.28c-1.95,-1.44 -3.1,-3.38 -3.45,-5.81c0.2,-0.95 0.49,-1.87 0.86,-2.77c-0.1,-0.37 -0.2,-0.74 -0.29,-1.11c-0.37,-1.26 -0.9,-2.46 -1.58,-3.59c-0.64,-0.45 -1.36,-0.63 -2.16,-0.55c-0.37,-0.27 -0.76,-0.55 -1.15,-0.83c-0.79,-1.2 -1.42,-2.49 -1.87,-3.87c-0.47,-2.5 0.53,-4.2 3.02,-5.12c1.5,-0.3 2.99,-0.62 4.46,-0.97c-0.48,-1.65 -0.96,-3.3 -1.44,-4.98c-2.76,1.26 -5.49,2.54 -8.2,3.87c1.61,1.62 2.14,3.56 1.58,5.81c-0.14,0.48 -0.33,0.94 -0.58,1.38c-2.56,1.81 -5.2,3.51 -7.92,5.12c-1.73,0.95 -3.41,0.9 -5.04,-0.14c-0.18,2.57 -1.57,4.09 -4.17,4.56c-1.65,0.22 -3.28,0.13 -4.89,-0.28c-1,-0.64 -1.58,-1.51 -1.73,-2.63c-2.93,-0.76 -5.81,-1.68 -8.64,-2.77c-2.16,-1.1 -3.22,-2.85 -3.17,-5.25c0.24,-0.64 0.43,-1.28 0.58,-1.94c1.6,-1.51 3.43,-2.75 5.47,-3.73c-3.94,-0.31 -7.87,-0.64 -11.8,-0.97c-2.1,-1.25 -3.06,-3.1 -2.88,-5.53c0.85,-15.11 1.67,-30.23 2.45,-45.35c-0.2,-3.77 1.62,-5.98 5.47,-6.64c3.06,0.27 6.13,0.45 9.21,0.55c3.27,-0.3 6.53,-0.66 9.79,-1.11c10.87,0.47 19.03,5.17 24.47,14.1c0.58,-0.19 1.15,-0.37 1.73,-0.55c0.2,-1.79 0.58,-3.55 1.15,-5.25c0.96,-1.27 2.25,-1.91 3.89,-1.94c2.63,0.38 5.18,1.03 7.63,1.94c1.26,-0.5 2.55,-0.64 3.89,-0.41c1.64,0.33 3.27,0.7 4.89,1.11c0.89,0.35 1.66,0.85 2.3,1.52c0.45,-0.22 0.93,-0.32 1.44,-0.28c-0.19,-1.1 -0.38,-2.21 -0.58,-3.32c-0.01,-1.7 0.76,-2.94 2.3,-3.73c5.65,-1.38 11.31,-2.72 16.98,-4.01c3.41,0.33 5.43,2.08 6.05,5.25c1.38,-0.1 2.72,-0.38 4.03,-0.83c-2.01,-2.46 -1.91,-4.81 0.29,-7.05c2.48,-0.91 4.78,-2.11 6.91,-3.59c1.9,-0.65 3.53,-0.28 4.89,1.11c1.73,0.19 3.45,0.37 5.18,0.55c3.03,0.37 4.75,1.98 5.18,4.84z" fill="#fdfdfe" id="svg_2" opacity="0.99"/>
   </g>
   <g id="svg_3">
    <path class="svg-elem-2" d="m116.5,58.03c0.66,0.25 1.15,0.71 1.44,1.38c0.34,0.09 0.67,0.19 1.01,0.28c2.18,0.13 4.34,0.37 6.48,0.69c0.92,0.28 1.3,0.88 1.15,1.8c-0.26,2.07 -1.08,3.91 -2.45,5.53c-2.68,3.1 -5.89,5.5 -9.64,7.19c-0.86,-0.69 -1.68,-1.42 -2.45,-2.21c-0.19,-0.28 -0.19,-0.55 0,-0.83c3.26,-2.07 5.99,-4.65 8.2,-7.74c-0.99,-0.52 -2.05,-0.66 -3.17,-0.41c-1.6,0.88 -3.28,1.3 -5.04,1.24c-0.62,-1.01 -1.25,-2.03 -1.87,-3.04c2.31,-1.01 4.42,-2.3 6.33,-3.87z" fill="#64dafb" id="svg_4"/>
   </g>
   <g id="svg_5">
    <path class="svg-elem-3" d="m155.65,60.24c0.29,0 0.58,0 0.86,0c0.28,1 0.47,2.01 0.58,3.04c-0.69,-0.03 -1.22,0.25 -1.58,0.83c0.09,1.44 0.33,2.86 0.72,4.29c-0.01,0.49 -0.11,0.95 -0.29,1.38c0.43,0.41 0.86,0.83 1.3,1.24c0.24,1.52 0.86,2.86 1.87,4.01c0.62,0.02 1.2,0.07 1.73,0.14c0.51,0.78 0.75,1.61 0.72,2.49c-2.24,0.98 -4.26,0.7 -6.05,-0.83c-0.8,-1.4 -1.38,-2.87 -1.73,-4.42c-0.6,-0.23 -1.22,-0.23 -1.87,0c-0.02,-0.78 -0.21,-1.52 -0.58,-2.21c0.63,-0.45 1.01,-1.05 1.15,-1.8c-1.94,-3.86 -0.89,-6.58 3.17,-8.16z" fill="#1881a6" id="svg_6"/>
   </g>
   <g id="svg_7">
    <path class="svg-elem-4" d="m160.55,61.07c0.74,0.3 1.36,0.75 1.87,1.38c1.82,2.65 1.87,5.28 0.14,7.88c0.19,0.4 0.28,0.81 0.29,1.24c-0.49,0.07 -1.06,0.07 -1.73,0c-0.77,-1.82 -1.35,-3.71 -1.73,-5.67c1.41,-1.36 1.8,-2.98 1.15,-4.84z" fill="#6c6c6c" id="svg_8" opacity="0.94"/>
   </g>
   <g id="svg_9">
    <path class="svg-elem-5" d="m130.32,61.35c2.3,1.27 3.36,3.2 3.17,5.81c-1.36,0.29 -2.42,1.03 -3.17,2.21c-0.8,-0.12 -1.47,-0.44 -2.02,-0.97c0.53,-1.15 1.06,-2.3 1.58,-3.46c0.34,-1.18 0.49,-2.37 0.43,-3.59z" fill="#6e6e6e" id="svg_10" opacity="0.95"/>
   </g>
   <g id="svg_11">
    <path class="svg-elem-6" d="m96.35,64.95c1.96,-0.49 3.25,0.15 3.89,1.94c0.39,2.36 -0.04,4.57 -1.3,6.64c-1.33,0.32 -2.68,0.37 -4.03,0.14c-0.23,-0.94 -0.37,-1.91 -0.43,-2.9c-0.21,-0.15 -0.45,-0.25 -0.72,-0.28c-3.22,0.75 -6.43,1.49 -9.64,2.21c-0.49,0.02 -0.88,-0.17 -1.15,-0.55c-0.15,-1.13 -0.39,-2.23 -0.72,-3.32c0.06,-0.16 0.16,-0.3 0.29,-0.41c4.63,-1.16 9.23,-2.31 13.82,-3.46z" fill="#1681a6" id="svg_12"/>
   </g>
   <g id="svg_13">
    <path class="svg-elem-7" d="m24.1,65.78c7.34,-0.59 13.86,1.3 19.58,5.67c6.49,6.29 7.88,13.52 4.17,21.71c-0.74,1.4 -1.66,2.69 -2.73,3.87c2.71,4.89 4.82,10.01 6.33,15.35c-0.04,0.59 -0.33,1.06 -0.86,1.38c-3.01,1.31 -5.98,2.69 -8.92,4.15c-1.3,0.67 -2.41,0.44 -3.31,-0.69c-3.16,-4.72 -6.27,-9.47 -9.36,-14.24c-2.63,-0.04 -5.22,-0.36 -7.77,-0.97c-0.17,4.79 -0.41,9.59 -0.72,14.38c-0.11,0.25 -0.25,0.48 -0.43,0.69c-4.91,0.12 -9.8,-0.07 -14.68,-0.55c-0.14,-0.14 -0.29,-0.28 -0.43,-0.41c0.55,-16.32 1.32,-32.64 2.3,-48.94c0.52,-0.68 1.24,-0.95 2.16,-0.83c3.41,0.17 6.81,0.36 10.22,0.55c1.54,-0.31 3.03,-0.68 4.46,-1.11z" fill="#0b7ea4" id="svg_14"/>
   </g>
   <g id="svg_15">
    <path class="svg-elem-8" d="m137.23,69.65c0.69,-0.1 1.13,0.18 1.3,0.83c0.58,1.84 1.15,3.69 1.73,5.53c0.15,-0.7 0.48,-1.3 1.01,-1.8c2.11,-0.27 4.17,-0.13 6.19,0.41c-0.33,1.45 -0.66,2.93 -1.01,4.42c-1.83,-0.23 -3.65,-0.51 -5.47,-0.83c0.79,2.55 1.46,5.13 2.02,7.74c-1.36,0.31 -2.7,0.68 -4.03,1.11c-1.87,-5.25 -3.6,-10.55 -5.18,-15.9c1.07,-0.69 2.22,-1.2 3.45,-1.52z" fill="#1580a5" id="svg_16"/>
   </g>
   <g id="svg_17">
    <path class="svg-elem-9" d="m177.53,71.03c0.77,-0.04 1.54,0 2.3,0.14c0.35,0.25 0.58,0.57 0.72,0.97c0.48,2.49 0.91,4.97 1.3,7.47c1.44,-0.24 2.88,-0.52 4.32,-0.83c0.75,0.21 1.28,0.67 1.58,1.38c0.76,3.38 1.24,6.79 1.44,10.23c-0.34,0.38 -0.77,0.62 -1.3,0.69c-1.19,0.09 -2.34,0.32 -3.45,0.69c0.64,3.29 2.08,6.19 4.32,8.71c0.9,0.48 1.86,0.8 2.88,0.97c0.12,3.56 -0.31,7.06 -1.3,10.51c-6.61,1.6 -11.79,-0.33 -15.55,-5.81c-2.04,-3.59 -3.58,-7.36 -4.61,-11.34c-1.59,-0.17 -3.18,0.02 -4.75,0.55c-0.54,-0.11 -0.97,-0.38 -1.3,-0.83c-0.77,-3.58 -1.34,-7.18 -1.73,-10.78c0.34,-0.38 0.77,-0.62 1.3,-0.69c1.06,-0.15 2.11,-0.29 3.17,-0.41c-0.54,-2.93 -0.88,-5.88 -1.01,-8.85c0.47,-0.34 1,-0.57 1.58,-0.69c3.42,-0.61 6.77,-1.3 10.08,-2.07z" fill="#0d7ea4" id="svg_18"/>
   </g>
   <g id="svg_19">
    <path class="svg-elem-10" d="m58.35,72.14c1.95,0.06 3.87,0.34 5.76,0.83c-0.08,3.08 -0.8,6.03 -2.16,8.85c-0.31,0.17 -0.64,0.26 -1.01,0.28c-1.3,-0.35 -2.6,-0.72 -3.89,-1.11c0.21,-2.98 0.64,-5.93 1.3,-8.85z" fill="#65dafb" id="svg_20"/>
   </g>
   <g id="svg_21">
    <path class="svg-elem-11" d="m184.15,71.86c1.48,0.69 2.44,1.79 2.88,3.32c-0.78,0.02 -1.55,0.11 -2.3,0.28c-0.1,-1.21 -0.29,-2.41 -0.58,-3.59z" fill="#6f6f6f" id="svg_22" opacity="0.87"/>
   </g>
   <g id="svg_23">
    <path class="svg-elem-12" d="m68.72,73.24c1.86,0.23 3.68,0.6 5.47,1.11c-0.11,6.72 -2.6,12.48 -7.48,17.28c-0.75,0.61 -1.56,1.12 -2.45,1.52c-1.3,-0.78 -2.5,-1.66 -3.6,-2.63c2.12,-2.04 3.8,-4.39 5.04,-7.05c1.32,-3.36 2.32,-6.77 3.02,-10.23z" fill="#64dafb" id="svg_24"/>
   </g>
   <g id="svg_25">
    <path class="svg-elem-13" d="m90.31,73.79c1.15,-0.05 2.31,0 3.45,0.14c0.7,3.46 0.12,6.74 -1.73,9.82c-1.34,0.28 -2.69,0.23 -4.03,-0.14c-0.17,-0.29 -0.27,-0.62 -0.29,-0.97c0.45,-2.75 0.69,-5.51 0.72,-8.3c0.66,-0.17 1.28,-0.35 1.87,-0.55z" fill="#107fa4" id="svg_26"/>
   </g>
   <g id="svg_27">
    <path class="svg-elem-14" d="m124.27,77.94c1.35,-0.05 2.69,0 4.03,0.14c0.18,0.21 0.33,0.44 0.43,0.69c0.05,5.68 0.63,11.3 1.73,16.87c0.56,2.34 2.05,3.81 4.46,4.42c0.09,0.19 0.19,0.37 0.29,0.55c-0.83,3.19 -1.84,6.33 -3.02,9.4c-3.26,0.56 -6.33,0 -9.21,-1.66c-7.94,5.33 -15.95,5.46 -24.04,0.41c-6.28,-5.48 -7.97,-12.07 -5.04,-19.77c3.13,-6.23 8.31,-9.45 15.55,-9.68c1.35,0.04 2.69,0.14 4.03,0.28c0.83,0.07 1.55,-0.16 2.16,-0.69c2.92,-0.29 5.8,-0.62 8.64,-0.97z" fill="#0c7ea4" id="svg_28"/>
   </g>
   <g id="svg_29">
    <path class="svg-elem-15" d="m22.94,78.5c3.02,-0.33 5.8,0.27 8.35,1.8c3.22,3.58 3.02,6.99 -0.58,10.23c-2.75,1.22 -5.53,1.27 -8.35,0.14c-0.09,-1.01 -0.19,-2.03 -0.29,-3.04c0.01,-3.11 0.29,-6.16 0.86,-9.13z" fill="#fcfdfe" id="svg_30"/>
   </g>
   <g id="svg_31">
    <path class="svg-elem-16" d="m191.35,79.88c1.04,0.49 1.85,1.23 2.45,2.21c0.92,3.9 1.74,7.81 2.45,11.75c-0.22,1.82 -1.09,3.25 -2.59,4.29c-1,-0.06 -1.96,-0.29 -2.88,-0.69c-0.56,-0.88 -1.04,-1.81 -1.44,-2.77c2.37,-1 3.62,-2.75 3.74,-5.25c-0.47,-3.21 -1.04,-6.39 -1.73,-9.54z" fill="#6c6c6c" id="svg_32" opacity="0.94"/>
   </g>
   <g id="svg_33">
    <path class="svg-elem-17" d="m109.88,89.56c1.15,-0.05 2.31,0 3.45,0.14c0.73,0.14 1.35,0.46 1.87,0.97c0.44,3.08 1.06,6.12 1.87,9.13c-0.15,0.44 -0.43,0.76 -0.86,0.97c-5.74,2.22 -9.1,0.43 -10.08,-5.39c0.21,-2.59 1.46,-4.52 3.74,-5.81z" fill="#fbfcfd" id="svg_34"/>
   </g>
   <g id="svg_35">
    <path class="svg-elem-18" d="m74.19,94.81c8.62,-0.49 14.33,3.2 17.13,11.06c0.57,2.44 0.05,4.61 -1.58,6.5c-3.62,2.47 -7.55,4.37 -11.8,5.67c-0.54,0.03 -0.97,-0.15 -1.3,-0.55c-1.33,-1.96 -2.63,-3.95 -3.89,-5.95c0.88,-0.93 1.93,-1.67 3.17,-2.21c1.53,-1.14 1.34,-2.07 -0.58,-2.77c-4.92,-0.25 -7.08,2.01 -6.48,6.77c1.79,5.31 5.58,7.57 11.37,6.77c1.41,-0.26 2.8,-0.58 4.17,-0.97c0.69,0.06 1.27,0.33 1.73,0.83c0.17,2.99 -0.12,5.94 -0.86,8.85c-1.13,0.92 -2.42,1.51 -3.89,1.8c-9.77,2.41 -17.49,-0.32 -23.17,-8.16c-5.38,-12.01 -1.88,-20.73 10.51,-26.13c1.82,-0.64 3.64,-1.15 5.47,-1.52z" fill="#62dafb" id="svg_36"/>
   </g>
   <g id="svg_37">
    <path class="svg-elem-19" d="m153.06,100.89c3.98,-0.38 7.82,0.13 11.51,1.52c0.56,0.4 0.94,0.9 1.15,1.52c-0.58,2.89 -1.3,5.75 -2.16,8.57c-0.24,0.23 -0.48,0.46 -0.72,0.69c-1.17,-0.09 -2.32,-0.37 -3.45,-0.83c-3.05,-0.62 -5.78,-0.02 -8.2,1.8c-1.99,2.96 -2.09,6 -0.29,9.13c2.32,2.47 5.16,3.17 8.49,2.07c2.8,-1.03 5.1,-2.69 6.91,-4.98c0.85,-0.57 1.67,-0.52 2.45,0.14c1.25,1.66 2.5,3.32 3.74,4.98c0.67,1.56 0.39,2.94 -0.86,4.15c-7.29,7.64 -16.07,9.9 -26.34,6.77c-7.48,-3.35 -11.12,-9.01 -10.94,-17.01c0.09,-7.05 3.35,-12.26 9.79,-15.62c2.86,-1.39 5.84,-2.36 8.92,-2.9z" fill="#62dafb" id="svg_38"/>
   </g>
   <g id="svg_39">
    <path class="svg-elem-20" d="m195.95,102c1.87,0.97 2.84,2.49 2.88,4.56c-0.44,3.58 -1.06,7.13 -1.87,10.65c-1.45,2.4 -3.66,3.51 -6.62,3.32c-2.62,-0.09 -5.16,-0.55 -7.63,-1.38c-2.22,1.62 -4.53,3.09 -6.91,4.42c-1.1,-1.29 -2.15,-2.62 -3.17,-4.01c2.28,-1.36 4.49,-2.83 6.62,-4.42c1.57,0.02 3.1,0.3 4.61,0.83c2.02,0.19 4.03,0.19 6.05,0c2.45,-0.51 3.94,-1.94 4.46,-4.29c0.56,-3.23 1.09,-6.46 1.58,-9.68z" fill="#6c6c6c" id="svg_40" opacity="0.96"/>
   </g>
   <g id="svg_41">
    <path class="svg-elem-21" d="m117.37,121.63c0,0.37 0,0.74 0,1.11c-0.29,0 -0.58,0 -0.86,0c-1.15,0.05 -2.31,0 -3.45,-0.14c-0.91,-0.85 -1.87,-1.63 -2.88,-2.35c-0.29,-0.14 -0.34,-0.32 -0.14,-0.55c1.38,-1.42 3.05,-2.12 5.04,-2.07c1.63,0.87 2.4,2.2 2.3,4.01z" fill="#1681a6" id="svg_42"/>
   </g>
   <g id="svg_43">
    <path class="svg-elem-22" d="m29.57,118.04c0.38,0 0.77,0 1.15,0c-0.67,5.2 -1.58,10.36 -2.73,15.49c-1.03,0.49 -2.14,0.68 -3.31,0.55c0.88,-5.26 1.84,-10.51 2.88,-15.76c0.74,0.08 1.41,-0.01 2.02,-0.28z" fill="#1c82a7" id="svg_44"/>
   </g>
   <g id="svg_45">
    <path class="svg-elem-23" d="m102.4,118.87c1.9,-0.01 3.62,0.5 5.18,1.52c-0.93,1.06 -1.8,2.16 -2.59,3.32c-1.34,0.45 -2.68,0.86 -4.03,1.24c-0.26,-1.37 -0.31,-2.76 -0.14,-4.15c0.28,-0.86 0.81,-1.51 1.58,-1.94z" fill="#1280a5" id="svg_46"/>
   </g>
   <g id="svg_47">
    <path class="svg-elem-24" d="m3.66,119.97c3.93,0.33 7.87,0.66 11.8,0.97c-2.04,0.98 -3.87,2.22 -5.47,3.73c-3.47,0.07 -5.58,-1.49 -6.33,-4.7z" fill="#6e6e6e" id="svg_48" opacity="0.96"/>
   </g>
   <g id="svg_49">
    <path class="svg-elem-25" d="m33.31,120.8c2.7,0.94 5.39,1.91 8.06,2.9c0.8,1 0.7,1.92 -0.29,2.77c-2.06,1.13 -4.08,2.33 -6.05,3.59c-0.27,0.13 -0.56,0.18 -0.86,0.14c-0.05,-1.02 0,-2.03 0.14,-3.04c0.98,-0.63 1.99,-1.23 3.02,-1.8c-1.19,-0.51 -2.4,-1.01 -3.6,-1.52c-0.16,-1.01 -0.3,-2.03 -0.43,-3.04z" fill="#1781a6" id="svg_50"/>
   </g>
   <g id="svg_51">
    <path class="svg-elem-26" d="m108.73,121.08c0.8,0.45 1.57,0.95 2.3,1.52c-1.17,0.14 -2.33,0.37 -3.45,0.69c-0.09,-0.09 -0.19,-0.19 -0.29,-0.28c0.55,-0.61 1.03,-1.25 1.44,-1.94z" fill="#1d84a8" id="svg_52"/>
   </g>
   <g id="svg_53">
    <path class="svg-elem-27" d="m20.64,121.91c0.44,0.2 0.69,0.57 0.72,1.11c0.23,0.66 0.19,1.31 -0.14,1.94c-1.06,0.6 -2.11,1.2 -3.17,1.8c1.34,0.46 2.63,0.97 3.89,1.52c0.24,1.03 0.19,2.04 -0.14,3.04c-2.59,-0.97 -5.18,-1.94 -7.77,-2.9c-0.74,-0.85 -0.74,-1.68 0,-2.49c2.23,-1.34 4.43,-2.68 6.62,-4.01z" fill="#1a82a7" id="svg_54"/>
   </g>
   <g id="svg_55">
    <path class="svg-elem-28" d="m117.37,121.63c0.27,0.39 0.37,0.85 0.29,1.38c-0.46,0.07 -0.84,-0.02 -1.15,-0.28c0.29,0 0.58,0 0.86,0c0,-0.37 0,-0.74 0,-1.11z" fill="#b0d5e1" id="svg_56"/>
   </g>
   <g id="svg_57">
    <path class="svg-elem-29" d="m109.59,124.12c1.06,-0.05 2.12,0 3.17,0.14c1.39,1.47 2.64,3.04 3.74,4.7c-0.65,1.84 -1.42,3.64 -2.3,5.39c-2.14,0.75 -4.35,1.08 -6.62,0.97c-1.6,-1.44 -2.84,-3.1 -3.74,-4.98c0.48,-2.02 1.34,-3.87 2.59,-5.53c1.11,-0.17 2.16,-0.41 3.17,-0.69z" fill="#1681a6" id="svg_58"/>
   </g>
   <g id="svg_59">
    <path class="svg-elem-30" d="m114.78,124.4c0.82,-0.29 1.68,-0.29 2.59,0c-0.09,0.84 -0.23,1.66 -0.43,2.49c-0.68,-0.88 -1.4,-1.71 -2.16,-2.49z" fill="#1b84a8" id="svg_60"/>
   </g>
   <g id="svg_61">
    <path class="svg-elem-31" d="m118.81,124.68c6.01,1.73 6.44,4.31 1.3,7.74c-0.61,-1.3 -1.33,-2.55 -2.16,-3.73c0.43,-1.3 0.72,-2.64 0.86,-4.01z" fill="#1982a6" id="svg_62"/>
   </g>
   <g id="svg_63">
    <path class="svg-elem-32" d="m176.38,124.95c3.92,3.54 4.25,7.32 1.01,11.34c-9.5,9.64 -20.58,11.81 -33.25,6.5c-2.05,-1.28 -3.97,-2.71 -5.76,-4.29c-3.73,-0.44 -7.47,-0.58 -11.23,-0.41c-0.34,0.32 -0.67,0.64 -1.01,0.97c0.34,2.18 0.05,4.31 -0.86,6.36c-1.64,2.25 -3.89,3.22 -6.76,2.9c-1.22,-0.26 -2.42,-0.58 -3.6,-0.97c-3.13,2.68 -6.53,3.09 -10.22,1.24c-1.27,-1.1 -2.13,-2.44 -2.59,-4.01c2.04,0.89 4.15,1.03 6.33,0.41c1.32,-0.43 2.52,-1.03 3.6,-1.8c7.99,2.28 11.73,-0.57 11.23,-8.57c0.41,-0.36 0.84,-0.68 1.3,-0.97c3.76,-0.15 7.5,0.04 11.23,0.55c1.96,1.97 4.17,3.63 6.62,4.98c12.56,4.39 23.35,1.86 32.39,-7.6c1.53,-1.99 2.05,-4.2 1.58,-6.64z" fill="#6c6c6c" id="svg_64" opacity="0.96"/>
   </g>
   <g id="svg_65">
    <path class="svg-elem-33" d="m51.44,125.78c2.04,-0.38 3.72,0.17 5.04,1.66c0.56,0.98 1.04,1.99 1.44,3.04c0.21,0.3 0.5,0.48 0.86,0.55c0.45,-0.29 0.89,-0.29 1.3,0c0.5,0.68 0.74,1.42 0.72,2.21c-0.51,0.17 -0.84,0.49 -1.01,0.97c0.57,1.14 1.09,2.29 1.58,3.46c0.38,3.17 -1.01,4.92 -4.17,5.25c-0.26,-0.7 -0.55,-1.39 -0.86,-2.07c0.32,-0.5 0.75,-0.92 1.3,-1.24c-0.22,-1.68 -0.75,-3.29 -1.58,-4.84c0.13,-0.36 0.32,-0.68 0.58,-0.97c-0.65,-0.21 -1.17,-0.58 -1.58,-1.11c-0.54,-1.16 -1.17,-2.27 -1.87,-3.32c-0.77,-0.28 -1.54,-0.33 -2.3,-0.14c-0.63,-0.8 -0.97,-1.67 -1.01,-2.63c0.54,-0.31 1.07,-0.58 1.58,-0.83z" fill="#1681a6" id="svg_66"/>
   </g>
   <g id="svg_67">
    <path class="svg-elem-34" d="m103.26,125.5c0.34,-0.06 0.63,0.03 0.86,0.28c-0.54,0.99 -1.02,2.01 -1.44,3.04c-0.38,-0.74 -0.77,-1.47 -1.15,-2.21c0.59,-0.38 1.17,-0.74 1.73,-1.11z" fill="#328cae" id="svg_68"/>
   </g>
   <g id="svg_69">
    <path class="svg-elem-35" d="m47.99,131.86c0,0.42 -0.2,0.74 -0.58,0.97c-2.73,1.73 -5.52,3.39 -8.35,4.98c-1.44,0.48 -2.83,0.34 -4.17,-0.41c-0.1,1.76 -0.92,3.09 -2.45,4.01c-1.38,0.28 -2.78,0.51 -4.17,0.69c-0.96,-0.08 -1.87,-0.31 -2.73,-0.69c-0.81,-0.87 -1.57,-1.75 -2.3,-2.63c-2.91,-0.98 -5.79,-2.04 -8.64,-3.18c-1.32,-0.92 -1.99,-2.17 -2.02,-3.73c2.83,1.08 5.71,2 8.64,2.77c0.15,1.11 0.72,1.99 1.73,2.63c1.61,0.4 3.24,0.49 4.89,0.28c2.6,-0.47 3.99,-1.99 4.17,-4.56c1.63,1.04 3.31,1.08 5.04,0.14c2.71,-1.6 5.35,-3.31 7.92,-5.12c0.25,-0.44 0.44,-0.9 0.58,-1.38c0.56,-2.25 0.03,-4.18 -1.58,-5.81c2.71,-1.33 5.45,-2.62 8.2,-3.87c0.48,1.67 0.96,3.33 1.44,4.98c-1.47,0.34 -2.96,0.66 -4.46,0.97c-2.49,0.91 -3.5,2.62 -3.02,5.12c0.45,1.38 1.08,2.67 1.87,3.87z" fill="#6d6d6d" id="svg_70" opacity="0.96"/>
   </g>
   <g id="svg_71">
    <path class="svg-elem-36" d="m108.73,127.16c2.31,-0.5 3.75,0.33 4.32,2.49c-0.48,2.26 -1.92,3.14 -4.32,2.63c-1.92,-1.75 -1.92,-3.46 0,-5.12z" fill="#fafcfd" id="svg_72"/>
   </g>
   <g id="svg_73">
    <path class="svg-elem-37" d="m101.53,134.08c-0.19,0.19 -0.38,0.37 -0.58,0.55c-3.99,-0.54 -5.09,-2.47 -3.31,-5.81c0.77,-0.61 1.59,-1.16 2.45,-1.66c0.67,1.29 1.34,2.58 2.02,3.87c-0.33,0.99 -0.52,2.01 -0.58,3.04z" fill="#1581a6" id="svg_74"/>
   </g>
   <g id="svg_75">
    <path class="svg-elem-38" d="m117.37,130.76c1.82,1.99 1.34,3.04 -1.44,3.18c0.62,-1.01 1.1,-2.07 1.44,-3.18z" fill="#2286a9" id="svg_76"/>
   </g>
   <g id="svg_77">
    <path class="svg-elem-39" d="m94.91,136.01c-1.44,-0.2 -2.88,-0.25 -4.32,-0.14c-0.79,0.66 -1.65,1.21 -2.59,1.66c-4.6,1.52 -9.3,1.98 -14.11,1.38c-2.05,-0.37 -4.02,-0.97 -5.9,-1.8c-0.35,0.64 -0.59,1.33 -0.72,2.07c2.02,5.16 0.48,8.94 -4.61,11.34c-3.79,1.02 -6.09,-0.32 -6.91,-4.01c0.64,-0.03 1.27,0.06 1.87,0.28c6.62,-1.65 8.87,-5.62 6.76,-11.89c0.13,-0.74 0.27,-1.48 0.43,-2.21c1.69,0.79 3.46,1.39 5.33,1.8c4.57,0.69 9.08,0.41 13.53,-0.83c1.6,-0.33 2.94,-1.06 4.03,-2.21c1.72,0.02 3.45,0.07 5.18,0.14c0.12,0.74 0.27,1.47 0.43,2.21c0.6,0.71 1.13,1.45 1.58,2.21z" fill="#6c6c6c" id="svg_78" opacity="0.96"/>
   </g>
   <g id="svg_79">
    <path class="svg-elem-40" d="m49.14,132.69c0.8,-0.08 1.52,0.11 2.16,0.55c0.69,1.13 1.21,2.33 1.58,3.59c-1.05,-0.07 -1.86,-0.53 -2.45,-1.38c-0.52,-0.9 -0.95,-1.82 -1.3,-2.77z" fill="#707070" id="svg_80" opacity="0.9"/>
   </g>
   <g id="svg_81">
    <path class="svg-elem-41" d="m102.97,132.69c0.29,-0.02 0.53,0.07 0.72,0.28c0.59,0.81 1.21,1.59 1.87,2.35c-2.6,0.67 -3.46,-0.2 -2.59,-2.63z" fill="#338dae" id="svg_82"/>
   </g>
   <g id="svg_83">
    <path class="svg-elem-42" d="m101.53,134.08c0.06,0.33 -0.03,0.6 -0.29,0.83c-0.18,-0.03 -0.27,-0.13 -0.29,-0.28c0.19,-0.19 0.38,-0.37 0.58,-0.55z" fill="#91c5d6" id="svg_84"/>
   </g>
   <g id="svg_85">
    <path class="svg-elem-43" d="m118.23,134.63c0.38,-0.05 0.72,0.04 1.01,0.28c0.92,5.46 -1.19,6.93 -6.33,4.42c0.55,-1.19 1.27,-2.34 2.16,-3.46c1.14,-0.29 2.19,-0.71 3.17,-1.24z" fill="#1280a5" id="svg_86"/>
   </g>
   <g id="svg_87">
    <path class="svg-elem-44" d="m95.78,136.57c0.94,0.45 1.9,0.92 2.88,1.38c0.56,1.04 0.85,2.14 0.86,3.32c-2.02,-1.01 -3.27,-2.58 -3.74,-4.7z" fill="#6d6d6d" id="svg_88" opacity="0.87"/>
   </g>
   <g id="svg_89">
    <path class="svg-elem-45" d="m111.9,136.29c0.39,-0.04 0.78,0 1.15,0.14c-0.59,0.72 -1.21,1.41 -1.87,2.07c-0.66,-0.52 -1.29,-1.08 -1.87,-1.66c0.9,-0.19 1.77,-0.37 2.59,-0.55z" fill="#2989ac" id="svg_90"/>
   </g>
   <g id="svg_91">
    <path class="svg-elem-46" d="m102.68,136.57c1.53,0.15 3.07,0.28 4.61,0.41c0.92,0.93 1.88,1.81 2.88,2.63c-1.33,1.61 -3.06,2.39 -5.18,2.35c-1.74,-1.37 -2.51,-3.17 -2.3,-5.39z" fill="#1b82a7" id="svg_92"/>
   </g>
  </g>
 </g>
</svg>